<?xml version="1.0" encoding="utf-8" standalone="no"?>
<!DOCTYPE svg PUBLIC "-//W3C//DTD SVG 1.1//EN"
  "http://www.w3.org/Graphics/SVG/1.1/DTD/svg11.dtd">
<svg xmlns:xlink="http://www.w3.org/1999/xlink" width="864pt" height="504pt" viewBox="0 0 864 504" xmlns="http://www.w3.org/2000/svg" version="1.1">
 <metadata>
  <rdf:RDF xmlns:dc="http://purl.org/dc/elements/1.1/" xmlns:cc="http://creativecommons.org/ns#" xmlns:rdf="http://www.w3.org/1999/02/22-rdf-syntax-ns#">
   <cc:Work>
    <dc:type rdf:resource="http://purl.org/dc/dcmitype/StillImage"/>
    <dc:date>2025-05-03T01:23:34.342865</dc:date>
    <dc:format>image/svg+xml</dc:format>
    <dc:creator>
     <cc:Agent>
      <dc:title>Matplotlib v3.7.2, https://matplotlib.org/</dc:title>
     </cc:Agent>
    </dc:creator>
   </cc:Work>
  </rdf:RDF>
 </metadata>
 <defs>
  <style type="text/css">*{stroke-linejoin: round; stroke-linecap: butt}</style>
 </defs>
 <g id="figure_1">
  <g id="patch_1">
   <path d="M 0 504 
L 864 504 
L 864 0 
L 0 0 
z
" style="fill: #ffffff"/>
  </g>
  <g id="axes_1">
   <g id="patch_2">
    <path d="M 44.57 462.04 
L 831.318894 462.04 
L 831.318894 26.88 
L 44.57 26.88 
z
" style="fill: #ffffff"/>
   </g>
   <g id="patch_3">
    <path d="M 831.075778 57.962857 
L 831.270871 57.962857 
L 831.270871 68.841857 
L 831.075778 68.841857 
z
" clip-path="url(#pc1d5eff1b0)" style="fill: #87ceeb; stroke: #000000; stroke-linejoin: miter"/>
   </g>
   <g id="patch_4">
    <path d="M 830.688592 89.045714 
L 831.075778 89.045714 
L 831.075778 99.924714 
L 830.688592 99.924714 
z
" clip-path="url(#pc1d5eff1b0)" style="fill: #87ceeb; stroke: #000000; stroke-linejoin: miter"/>
   </g>
   <g id="patch_5">
    <path d="M 831.075778 89.045714 
L 831.270871 89.045714 
L 831.270871 99.924714 
L 831.075778 99.924714 
z
" clip-path="url(#pc1d5eff1b0)" style="fill: #f08080; stroke: #000000; stroke-linejoin: miter"/>
   </g>
   <g id="patch_6">
    <path d="M 829.917223 120.128571 
L 830.688592 120.128571 
L 830.688592 131.007571 
L 829.917223 131.007571 
z
" clip-path="url(#pc1d5eff1b0)" style="fill: #87ceeb; stroke: #000000; stroke-linejoin: miter"/>
   </g>
   <g id="patch_7">
    <path d="M 830.688592 120.128571 
L 831.075778 120.128571 
L 831.075778 131.007571 
L 830.688592 131.007571 
z
" clip-path="url(#pc1d5eff1b0)" style="fill: #f08080; stroke: #000000; stroke-linejoin: miter"/>
   </g>
   <g id="patch_8">
    <path d="M 828.377485 151.211429 
L 829.917223 151.211429 
L 829.917223 162.090429 
L 828.377485 162.090429 
z
" clip-path="url(#pc1d5eff1b0)" style="fill: #87ceeb; stroke: #000000; stroke-linejoin: miter"/>
   </g>
   <g id="patch_9">
    <path d="M 829.917223 151.211429 
L 830.688592 151.211429 
L 830.688592 162.090429 
L 829.917223 162.090429 
z
" clip-path="url(#pc1d5eff1b0)" style="fill: #f08080; stroke: #000000; stroke-linejoin: miter"/>
   </g>
   <g id="patch_10">
    <path d="M 825.301011 182.294286 
L 828.377485 182.294286 
L 828.377485 193.173286 
L 825.301011 193.173286 
z
" clip-path="url(#pc1d5eff1b0)" style="fill: #87ceeb; stroke: #000000; stroke-linejoin: miter"/>
   </g>
   <g id="patch_11">
    <path d="M 828.377485 182.294286 
L 829.917223 182.294286 
L 829.917223 193.173286 
L 828.377485 193.173286 
z
" clip-path="url(#pc1d5eff1b0)" style="fill: #f08080; stroke: #000000; stroke-linejoin: miter"/>
   </g>
   <g id="patch_12">
    <path d="M 819.151065 213.377143 
L 825.301011 213.377143 
L 825.301011 224.256143 
L 819.151065 224.256143 
z
" clip-path="url(#pc1d5eff1b0)" style="fill: #87ceeb; stroke: #000000; stroke-linejoin: miter"/>
   </g>
   <g id="patch_13">
    <path d="M 825.301011 213.377143 
L 828.377485 213.377143 
L 828.377485 224.256143 
L 825.301011 224.256143 
z
" clip-path="url(#pc1d5eff1b0)" style="fill: #f08080; stroke: #000000; stroke-linejoin: miter"/>
   </g>
   <g id="patch_14">
    <path d="M 806.854174 244.46 
L 819.151065 244.46 
L 819.151065 255.339 
L 806.854174 255.339 
z
" clip-path="url(#pc1d5eff1b0)" style="fill: #87ceeb; stroke: #000000; stroke-linejoin: miter"/>
   </g>
   <g id="patch_15">
    <path d="M 819.151065 244.46 
L 825.301011 244.46 
L 825.301011 255.339 
L 819.151065 255.339 
z
" clip-path="url(#pc1d5eff1b0)" style="fill: #f08080; stroke: #000000; stroke-linejoin: miter"/>
   </g>
   <g id="patch_16">
    <path d="M 782.263394 275.542857 
L 806.854174 275.542857 
L 806.854174 286.421857 
L 782.263394 286.421857 
z
" clip-path="url(#pc1d5eff1b0)" style="fill: #87ceeb; stroke: #000000; stroke-linejoin: miter"/>
   </g>
   <g id="patch_17">
    <path d="M 806.854174 275.542857 
L 819.151065 275.542857 
L 819.151065 286.421857 
L 806.854174 286.421857 
z
" clip-path="url(#pc1d5eff1b0)" style="fill: #f08080; stroke: #000000; stroke-linejoin: miter"/>
   </g>
   <g id="patch_18">
    <path d="M 733.084835 306.625714 
L 782.263394 306.625714 
L 782.263394 317.504714 
L 733.084835 317.504714 
z
" clip-path="url(#pc1d5eff1b0)" style="fill: #87ceeb; stroke: #000000; stroke-linejoin: miter"/>
   </g>
   <g id="patch_19">
    <path d="M 782.263394 306.625714 
L 806.854174 306.625714 
L 806.854174 317.504714 
L 782.263394 317.504714 
z
" clip-path="url(#pc1d5eff1b0)" style="fill: #f08080; stroke: #000000; stroke-linejoin: miter"/>
   </g>
   <g id="patch_20">
    <path d="M 634.730718 337.708571 
L 733.084835 337.708571 
L 733.084835 348.587571 
L 634.730718 348.587571 
z
" clip-path="url(#pc1d5eff1b0)" style="fill: #87ceeb; stroke: #000000; stroke-linejoin: miter"/>
   </g>
   <g id="patch_21">
    <path d="M 733.084835 337.708571 
L 782.263394 337.708571 
L 782.263394 348.587571 
L 733.084835 348.587571 
z
" clip-path="url(#pc1d5eff1b0)" style="fill: #f08080; stroke: #000000; stroke-linejoin: miter"/>
   </g>
   <g id="patch_22">
    <path d="M 438.025486 368.791429 
L 634.730718 368.791429 
L 634.730718 379.670429 
L 438.025486 379.670429 
z
" clip-path="url(#pc1d5eff1b0)" style="fill: #87ceeb; stroke: #000000; stroke-linejoin: miter"/>
   </g>
   <g id="patch_23">
    <path d="M 634.730718 368.791429 
L 733.084835 368.791429 
L 733.084835 379.670429 
L 634.730718 379.670429 
z
" clip-path="url(#pc1d5eff1b0)" style="fill: #f08080; stroke: #000000; stroke-linejoin: miter"/>
   </g>
   <g id="patch_24">
    <path d="M 44.618023 399.874286 
L 438.025486 399.874286 
L 438.025486 410.753286 
L 44.618023 410.753286 
z
" clip-path="url(#pc1d5eff1b0)" style="fill: #87ceeb; stroke: #000000; stroke-linejoin: miter"/>
   </g>
   <g id="patch_25">
    <path d="M 438.025486 399.874286 
L 634.730718 399.874286 
L 634.730718 410.753286 
L 438.025486 410.753286 
z
" clip-path="url(#pc1d5eff1b0)" style="fill: #f08080; stroke: #000000; stroke-linejoin: miter"/>
   </g>
   <g id="matplotlib.axis_1">
    <g id="xtick_1">
     <g id="line2d_1">
      <path d="M 62.602263 462.04 
L 62.602263 26.88 
" clip-path="url(#pc1d5eff1b0)" style="fill: none; stroke: #b0b0b0; stroke-width: 0.8; stroke-linecap: square"/>
     </g>
     <g id="line2d_2">
      <defs>
       <path id="m0aea357332" d="M 0 0 
L 0 3.5 
" style="stroke: #000000; stroke-width: 0.8"/>
      </defs>
      <g>
       <use xlink:href="#m0aea357332" x="62.602263" y="462.04" style="stroke: #000000; stroke-width: 0.8"/>
      </g>
     </g>
     <g id="text_1">
      <!-- 0xb2d05e00 -->
      <g transform="translate(31.130388 476.638438) scale(0.1 -0.1)">
       <defs>
        <path id="DejaVuSans-30" d="M 2034 4250 
Q 1547 4250 1301 3770 
Q 1056 3291 1056 2328 
Q 1056 1369 1301 889 
Q 1547 409 2034 409 
Q 2525 409 2770 889 
Q 3016 1369 3016 2328 
Q 3016 3291 2770 3770 
Q 2525 4250 2034 4250 
z
M 2034 4750 
Q 2819 4750 3233 4129 
Q 3647 3509 3647 2328 
Q 3647 1150 3233 529 
Q 2819 -91 2034 -91 
Q 1250 -91 836 529 
Q 422 1150 422 2328 
Q 422 3509 836 4129 
Q 1250 4750 2034 4750 
z
" transform="scale(0.015625)"/>
        <path id="DejaVuSans-78" d="M 3513 3500 
L 2247 1797 
L 3578 0 
L 2900 0 
L 1881 1375 
L 863 0 
L 184 0 
L 1544 1831 
L 300 3500 
L 978 3500 
L 1906 2253 
L 2834 3500 
L 3513 3500 
z
" transform="scale(0.015625)"/>
        <path id="DejaVuSans-62" d="M 3116 1747 
Q 3116 2381 2855 2742 
Q 2594 3103 2138 3103 
Q 1681 3103 1420 2742 
Q 1159 2381 1159 1747 
Q 1159 1113 1420 752 
Q 1681 391 2138 391 
Q 2594 391 2855 752 
Q 3116 1113 3116 1747 
z
M 1159 2969 
Q 1341 3281 1617 3432 
Q 1894 3584 2278 3584 
Q 2916 3584 3314 3078 
Q 3713 2572 3713 1747 
Q 3713 922 3314 415 
Q 2916 -91 2278 -91 
Q 1894 -91 1617 61 
Q 1341 213 1159 525 
L 1159 0 
L 581 0 
L 581 4863 
L 1159 4863 
L 1159 2969 
z
" transform="scale(0.015625)"/>
        <path id="DejaVuSans-32" d="M 1228 531 
L 3431 531 
L 3431 0 
L 469 0 
L 469 531 
Q 828 903 1448 1529 
Q 2069 2156 2228 2338 
Q 2531 2678 2651 2914 
Q 2772 3150 2772 3378 
Q 2772 3750 2511 3984 
Q 2250 4219 1831 4219 
Q 1534 4219 1204 4116 
Q 875 4013 500 3803 
L 500 4441 
Q 881 4594 1212 4672 
Q 1544 4750 1819 4750 
Q 2544 4750 2975 4387 
Q 3406 4025 3406 3419 
Q 3406 3131 3298 2873 
Q 3191 2616 2906 2266 
Q 2828 2175 2409 1742 
Q 1991 1309 1228 531 
z
" transform="scale(0.015625)"/>
        <path id="DejaVuSans-64" d="M 2906 2969 
L 2906 4863 
L 3481 4863 
L 3481 0 
L 2906 0 
L 2906 525 
Q 2725 213 2448 61 
Q 2172 -91 1784 -91 
Q 1150 -91 751 415 
Q 353 922 353 1747 
Q 353 2572 751 3078 
Q 1150 3584 1784 3584 
Q 2172 3584 2448 3432 
Q 2725 3281 2906 2969 
z
M 947 1747 
Q 947 1113 1208 752 
Q 1469 391 1925 391 
Q 2381 391 2643 752 
Q 2906 1113 2906 1747 
Q 2906 2381 2643 2742 
Q 2381 3103 1925 3103 
Q 1469 3103 1208 2742 
Q 947 2381 947 1747 
z
" transform="scale(0.015625)"/>
        <path id="DejaVuSans-35" d="M 691 4666 
L 3169 4666 
L 3169 4134 
L 1269 4134 
L 1269 2991 
Q 1406 3038 1543 3061 
Q 1681 3084 1819 3084 
Q 2600 3084 3056 2656 
Q 3513 2228 3513 1497 
Q 3513 744 3044 326 
Q 2575 -91 1722 -91 
Q 1428 -91 1123 -41 
Q 819 9 494 109 
L 494 744 
Q 775 591 1075 516 
Q 1375 441 1709 441 
Q 2250 441 2565 725 
Q 2881 1009 2881 1497 
Q 2881 1984 2565 2268 
Q 2250 2553 1709 2553 
Q 1456 2553 1204 2497 
Q 953 2441 691 2322 
L 691 4666 
z
" transform="scale(0.015625)"/>
        <path id="DejaVuSans-65" d="M 3597 1894 
L 3597 1613 
L 953 1613 
Q 991 1019 1311 708 
Q 1631 397 2203 397 
Q 2534 397 2845 478 
Q 3156 559 3463 722 
L 3463 178 
Q 3153 47 2828 -22 
Q 2503 -91 2169 -91 
Q 1331 -91 842 396 
Q 353 884 353 1716 
Q 353 2575 817 3079 
Q 1281 3584 2069 3584 
Q 2775 3584 3186 3129 
Q 3597 2675 3597 1894 
z
M 3022 2063 
Q 3016 2534 2758 2815 
Q 2500 3097 2075 3097 
Q 1594 3097 1305 2825 
Q 1016 2553 972 2059 
L 3022 2063 
z
" transform="scale(0.015625)"/>
       </defs>
       <use xlink:href="#DejaVuSans-30"/>
       <use xlink:href="#DejaVuSans-78" x="63.623047"/>
       <use xlink:href="#DejaVuSans-62" x="122.802734"/>
       <use xlink:href="#DejaVuSans-32" x="186.279297"/>
       <use xlink:href="#DejaVuSans-64" x="249.902344"/>
       <use xlink:href="#DejaVuSans-30" x="313.378906"/>
       <use xlink:href="#DejaVuSans-35" x="377.001953"/>
       <use xlink:href="#DejaVuSans-65" x="440.625"/>
       <use xlink:href="#DejaVuSans-30" x="502.148438"/>
       <use xlink:href="#DejaVuSans-30" x="565.771484"/>
      </g>
     </g>
    </g>
    <g id="xtick_2">
     <g id="line2d_3">
      <path d="M 209.156846 462.04 
L 209.156846 26.88 
" clip-path="url(#pc1d5eff1b0)" style="fill: none; stroke: #b0b0b0; stroke-width: 0.8; stroke-linecap: square"/>
     </g>
     <g id="line2d_4">
      <g>
       <use xlink:href="#m0aea357332" x="209.156846" y="462.04" style="stroke: #000000; stroke-width: 0.8"/>
      </g>
     </g>
     <g id="text_2">
      <!-- 0xbebc2000 -->
      <g transform="translate(178.117002 476.638438) scale(0.1 -0.1)">
       <defs>
        <path id="DejaVuSans-63" d="M 3122 3366 
L 3122 2828 
Q 2878 2963 2633 3030 
Q 2388 3097 2138 3097 
Q 1578 3097 1268 2742 
Q 959 2388 959 1747 
Q 959 1106 1268 751 
Q 1578 397 2138 397 
Q 2388 397 2633 464 
Q 2878 531 3122 666 
L 3122 134 
Q 2881 22 2623 -34 
Q 2366 -91 2075 -91 
Q 1284 -91 818 406 
Q 353 903 353 1747 
Q 353 2603 823 3093 
Q 1294 3584 2113 3584 
Q 2378 3584 2631 3529 
Q 2884 3475 3122 3366 
z
" transform="scale(0.015625)"/>
       </defs>
       <use xlink:href="#DejaVuSans-30"/>
       <use xlink:href="#DejaVuSans-78" x="63.623047"/>
       <use xlink:href="#DejaVuSans-62" x="122.802734"/>
       <use xlink:href="#DejaVuSans-65" x="186.279297"/>
       <use xlink:href="#DejaVuSans-62" x="247.802734"/>
       <use xlink:href="#DejaVuSans-63" x="311.279297"/>
       <use xlink:href="#DejaVuSans-32" x="366.259766"/>
       <use xlink:href="#DejaVuSans-30" x="429.882812"/>
       <use xlink:href="#DejaVuSans-30" x="493.505859"/>
       <use xlink:href="#DejaVuSans-30" x="557.128906"/>
      </g>
     </g>
    </g>
    <g id="xtick_3">
     <g id="line2d_5">
      <path d="M 355.711428 462.04 
L 355.711428 26.88 
" clip-path="url(#pc1d5eff1b0)" style="fill: none; stroke: #b0b0b0; stroke-width: 0.8; stroke-linecap: square"/>
     </g>
     <g id="line2d_6">
      <g>
       <use xlink:href="#m0aea357332" x="355.711428" y="462.04" style="stroke: #000000; stroke-width: 0.8"/>
      </g>
     </g>
     <g id="text_3">
      <!-- 0xcaa7e200 -->
      <g transform="translate(324.979397 476.638438) scale(0.1 -0.1)">
       <defs>
        <path id="DejaVuSans-61" d="M 2194 1759 
Q 1497 1759 1228 1600 
Q 959 1441 959 1056 
Q 959 750 1161 570 
Q 1363 391 1709 391 
Q 2188 391 2477 730 
Q 2766 1069 2766 1631 
L 2766 1759 
L 2194 1759 
z
M 3341 1997 
L 3341 0 
L 2766 0 
L 2766 531 
Q 2569 213 2275 61 
Q 1981 -91 1556 -91 
Q 1019 -91 701 211 
Q 384 513 384 1019 
Q 384 1609 779 1909 
Q 1175 2209 1959 2209 
L 2766 2209 
L 2766 2266 
Q 2766 2663 2505 2880 
Q 2244 3097 1772 3097 
Q 1472 3097 1187 3025 
Q 903 2953 641 2809 
L 641 3341 
Q 956 3463 1253 3523 
Q 1550 3584 1831 3584 
Q 2591 3584 2966 3190 
Q 3341 2797 3341 1997 
z
" transform="scale(0.015625)"/>
        <path id="DejaVuSans-37" d="M 525 4666 
L 3525 4666 
L 3525 4397 
L 1831 0 
L 1172 0 
L 2766 4134 
L 525 4134 
L 525 4666 
z
" transform="scale(0.015625)"/>
       </defs>
       <use xlink:href="#DejaVuSans-30"/>
       <use xlink:href="#DejaVuSans-78" x="63.623047"/>
       <use xlink:href="#DejaVuSans-63" x="121.052734"/>
       <use xlink:href="#DejaVuSans-61" x="176.033203"/>
       <use xlink:href="#DejaVuSans-61" x="237.3125"/>
       <use xlink:href="#DejaVuSans-37" x="298.591797"/>
       <use xlink:href="#DejaVuSans-65" x="362.214844"/>
       <use xlink:href="#DejaVuSans-32" x="423.738281"/>
       <use xlink:href="#DejaVuSans-30" x="487.361328"/>
       <use xlink:href="#DejaVuSans-30" x="550.984375"/>
      </g>
     </g>
    </g>
    <g id="xtick_4">
     <g id="line2d_7">
      <path d="M 502.26601 462.04 
L 502.26601 26.88 
" clip-path="url(#pc1d5eff1b0)" style="fill: none; stroke: #b0b0b0; stroke-width: 0.8; stroke-linecap: square"/>
     </g>
     <g id="line2d_8">
      <g>
       <use xlink:href="#m0aea357332" x="502.26601" y="462.04" style="stroke: #000000; stroke-width: 0.8"/>
      </g>
     </g>
     <g id="text_4">
      <!-- 0xd693a400 -->
      <g transform="translate(470.799604 476.638438) scale(0.1 -0.1)">
       <defs>
        <path id="DejaVuSans-36" d="M 2113 2584 
Q 1688 2584 1439 2293 
Q 1191 2003 1191 1497 
Q 1191 994 1439 701 
Q 1688 409 2113 409 
Q 2538 409 2786 701 
Q 3034 994 3034 1497 
Q 3034 2003 2786 2293 
Q 2538 2584 2113 2584 
z
M 3366 4563 
L 3366 3988 
Q 3128 4100 2886 4159 
Q 2644 4219 2406 4219 
Q 1781 4219 1451 3797 
Q 1122 3375 1075 2522 
Q 1259 2794 1537 2939 
Q 1816 3084 2150 3084 
Q 2853 3084 3261 2657 
Q 3669 2231 3669 1497 
Q 3669 778 3244 343 
Q 2819 -91 2113 -91 
Q 1303 -91 875 529 
Q 447 1150 447 2328 
Q 447 3434 972 4092 
Q 1497 4750 2381 4750 
Q 2619 4750 2861 4703 
Q 3103 4656 3366 4563 
z
" transform="scale(0.015625)"/>
        <path id="DejaVuSans-39" d="M 703 97 
L 703 672 
Q 941 559 1184 500 
Q 1428 441 1663 441 
Q 2288 441 2617 861 
Q 2947 1281 2994 2138 
Q 2813 1869 2534 1725 
Q 2256 1581 1919 1581 
Q 1219 1581 811 2004 
Q 403 2428 403 3163 
Q 403 3881 828 4315 
Q 1253 4750 1959 4750 
Q 2769 4750 3195 4129 
Q 3622 3509 3622 2328 
Q 3622 1225 3098 567 
Q 2575 -91 1691 -91 
Q 1453 -91 1209 -44 
Q 966 3 703 97 
z
M 1959 2075 
Q 2384 2075 2632 2365 
Q 2881 2656 2881 3163 
Q 2881 3666 2632 3958 
Q 2384 4250 1959 4250 
Q 1534 4250 1286 3958 
Q 1038 3666 1038 3163 
Q 1038 2656 1286 2365 
Q 1534 2075 1959 2075 
z
" transform="scale(0.015625)"/>
        <path id="DejaVuSans-33" d="M 2597 2516 
Q 3050 2419 3304 2112 
Q 3559 1806 3559 1356 
Q 3559 666 3084 287 
Q 2609 -91 1734 -91 
Q 1441 -91 1130 -33 
Q 819 25 488 141 
L 488 750 
Q 750 597 1062 519 
Q 1375 441 1716 441 
Q 2309 441 2620 675 
Q 2931 909 2931 1356 
Q 2931 1769 2642 2001 
Q 2353 2234 1838 2234 
L 1294 2234 
L 1294 2753 
L 1863 2753 
Q 2328 2753 2575 2939 
Q 2822 3125 2822 3475 
Q 2822 3834 2567 4026 
Q 2313 4219 1838 4219 
Q 1578 4219 1281 4162 
Q 984 4106 628 3988 
L 628 4550 
Q 988 4650 1302 4700 
Q 1616 4750 1894 4750 
Q 2613 4750 3031 4423 
Q 3450 4097 3450 3541 
Q 3450 3153 3228 2886 
Q 3006 2619 2597 2516 
z
" transform="scale(0.015625)"/>
        <path id="DejaVuSans-34" d="M 2419 4116 
L 825 1625 
L 2419 1625 
L 2419 4116 
z
M 2253 4666 
L 3047 4666 
L 3047 1625 
L 3713 1625 
L 3713 1100 
L 3047 1100 
L 3047 0 
L 2419 0 
L 2419 1100 
L 313 1100 
L 313 1709 
L 2253 4666 
z
" transform="scale(0.015625)"/>
       </defs>
       <use xlink:href="#DejaVuSans-30"/>
       <use xlink:href="#DejaVuSans-78" x="63.623047"/>
       <use xlink:href="#DejaVuSans-64" x="122.802734"/>
       <use xlink:href="#DejaVuSans-36" x="186.279297"/>
       <use xlink:href="#DejaVuSans-39" x="249.902344"/>
       <use xlink:href="#DejaVuSans-33" x="313.525391"/>
       <use xlink:href="#DejaVuSans-61" x="377.148438"/>
       <use xlink:href="#DejaVuSans-34" x="438.427734"/>
       <use xlink:href="#DejaVuSans-30" x="502.050781"/>
       <use xlink:href="#DejaVuSans-30" x="565.673828"/>
      </g>
     </g>
    </g>
    <g id="xtick_5">
     <g id="line2d_9">
      <path d="M 648.820593 462.04 
L 648.820593 26.88 
" clip-path="url(#pc1d5eff1b0)" style="fill: none; stroke: #b0b0b0; stroke-width: 0.8; stroke-linecap: square"/>
     </g>
     <g id="line2d_10">
      <g>
       <use xlink:href="#m0aea357332" x="648.820593" y="462.04" style="stroke: #000000; stroke-width: 0.8"/>
      </g>
     </g>
     <g id="text_5">
      <!-- 0xe27f6600 -->
      <g transform="translate(618.911999 476.638438) scale(0.1 -0.1)">
       <defs>
        <path id="DejaVuSans-66" d="M 2375 4863 
L 2375 4384 
L 1825 4384 
Q 1516 4384 1395 4259 
Q 1275 4134 1275 3809 
L 1275 3500 
L 2222 3500 
L 2222 3053 
L 1275 3053 
L 1275 0 
L 697 0 
L 697 3053 
L 147 3053 
L 147 3500 
L 697 3500 
L 697 3744 
Q 697 4328 969 4595 
Q 1241 4863 1831 4863 
L 2375 4863 
z
" transform="scale(0.015625)"/>
       </defs>
       <use xlink:href="#DejaVuSans-30"/>
       <use xlink:href="#DejaVuSans-78" x="63.623047"/>
       <use xlink:href="#DejaVuSans-65" x="119.677734"/>
       <use xlink:href="#DejaVuSans-32" x="181.201172"/>
       <use xlink:href="#DejaVuSans-37" x="244.824219"/>
       <use xlink:href="#DejaVuSans-66" x="308.447266"/>
       <use xlink:href="#DejaVuSans-36" x="343.652344"/>
       <use xlink:href="#DejaVuSans-36" x="407.275391"/>
       <use xlink:href="#DejaVuSans-30" x="470.898438"/>
       <use xlink:href="#DejaVuSans-30" x="534.521484"/>
      </g>
     </g>
    </g>
    <g id="xtick_6">
     <g id="line2d_11">
      <path d="M 795.375175 462.04 
L 795.375175 26.88 
" clip-path="url(#pc1d5eff1b0)" style="fill: none; stroke: #b0b0b0; stroke-width: 0.8; stroke-linecap: square"/>
     </g>
     <g id="line2d_12">
      <g>
       <use xlink:href="#m0aea357332" x="795.375175" y="462.04" style="stroke: #000000; stroke-width: 0.8"/>
      </g>
     </g>
     <g id="text_6">
      <!-- 0xee6b2800 -->
      <g transform="translate(764.157206 476.638438) scale(0.1 -0.1)">
       <defs>
        <path id="DejaVuSans-38" d="M 2034 2216 
Q 1584 2216 1326 1975 
Q 1069 1734 1069 1313 
Q 1069 891 1326 650 
Q 1584 409 2034 409 
Q 2484 409 2743 651 
Q 3003 894 3003 1313 
Q 3003 1734 2745 1975 
Q 2488 2216 2034 2216 
z
M 1403 2484 
Q 997 2584 770 2862 
Q 544 3141 544 3541 
Q 544 4100 942 4425 
Q 1341 4750 2034 4750 
Q 2731 4750 3128 4425 
Q 3525 4100 3525 3541 
Q 3525 3141 3298 2862 
Q 3072 2584 2669 2484 
Q 3125 2378 3379 2068 
Q 3634 1759 3634 1313 
Q 3634 634 3220 271 
Q 2806 -91 2034 -91 
Q 1263 -91 848 271 
Q 434 634 434 1313 
Q 434 1759 690 2068 
Q 947 2378 1403 2484 
z
M 1172 3481 
Q 1172 3119 1398 2916 
Q 1625 2713 2034 2713 
Q 2441 2713 2670 2916 
Q 2900 3119 2900 3481 
Q 2900 3844 2670 4047 
Q 2441 4250 2034 4250 
Q 1625 4250 1398 4047 
Q 1172 3844 1172 3481 
z
" transform="scale(0.015625)"/>
       </defs>
       <use xlink:href="#DejaVuSans-30"/>
       <use xlink:href="#DejaVuSans-78" x="63.623047"/>
       <use xlink:href="#DejaVuSans-65" x="119.677734"/>
       <use xlink:href="#DejaVuSans-65" x="181.201172"/>
       <use xlink:href="#DejaVuSans-36" x="242.724609"/>
       <use xlink:href="#DejaVuSans-62" x="306.347656"/>
       <use xlink:href="#DejaVuSans-32" x="369.824219"/>
       <use xlink:href="#DejaVuSans-38" x="433.447266"/>
       <use xlink:href="#DejaVuSans-30" x="497.070312"/>
       <use xlink:href="#DejaVuSans-30" x="560.693359"/>
      </g>
     </g>
    </g>
    <g id="text_7">
     <!-- Virtual Address -->
     <g transform="translate(400.110853 490.316563) scale(0.1 -0.1)">
      <defs>
       <path id="DejaVuSans-56" d="M 1831 0 
L 50 4666 
L 709 4666 
L 2188 738 
L 3669 4666 
L 4325 4666 
L 2547 0 
L 1831 0 
z
" transform="scale(0.015625)"/>
       <path id="DejaVuSans-69" d="M 603 3500 
L 1178 3500 
L 1178 0 
L 603 0 
L 603 3500 
z
M 603 4863 
L 1178 4863 
L 1178 4134 
L 603 4134 
L 603 4863 
z
" transform="scale(0.015625)"/>
       <path id="DejaVuSans-72" d="M 2631 2963 
Q 2534 3019 2420 3045 
Q 2306 3072 2169 3072 
Q 1681 3072 1420 2755 
Q 1159 2438 1159 1844 
L 1159 0 
L 581 0 
L 581 3500 
L 1159 3500 
L 1159 2956 
Q 1341 3275 1631 3429 
Q 1922 3584 2338 3584 
Q 2397 3584 2469 3576 
Q 2541 3569 2628 3553 
L 2631 2963 
z
" transform="scale(0.015625)"/>
       <path id="DejaVuSans-74" d="M 1172 4494 
L 1172 3500 
L 2356 3500 
L 2356 3053 
L 1172 3053 
L 1172 1153 
Q 1172 725 1289 603 
Q 1406 481 1766 481 
L 2356 481 
L 2356 0 
L 1766 0 
Q 1100 0 847 248 
Q 594 497 594 1153 
L 594 3053 
L 172 3053 
L 172 3500 
L 594 3500 
L 594 4494 
L 1172 4494 
z
" transform="scale(0.015625)"/>
       <path id="DejaVuSans-75" d="M 544 1381 
L 544 3500 
L 1119 3500 
L 1119 1403 
Q 1119 906 1312 657 
Q 1506 409 1894 409 
Q 2359 409 2629 706 
Q 2900 1003 2900 1516 
L 2900 3500 
L 3475 3500 
L 3475 0 
L 2900 0 
L 2900 538 
Q 2691 219 2414 64 
Q 2138 -91 1772 -91 
Q 1169 -91 856 284 
Q 544 659 544 1381 
z
M 1991 3584 
L 1991 3584 
z
" transform="scale(0.015625)"/>
       <path id="DejaVuSans-6c" d="M 603 4863 
L 1178 4863 
L 1178 0 
L 603 0 
L 603 4863 
z
" transform="scale(0.015625)"/>
       <path id="DejaVuSans-20" transform="scale(0.015625)"/>
       <path id="DejaVuSans-41" d="M 2188 4044 
L 1331 1722 
L 3047 1722 
L 2188 4044 
z
M 1831 4666 
L 2547 4666 
L 4325 0 
L 3669 0 
L 3244 1197 
L 1141 1197 
L 716 0 
L 50 0 
L 1831 4666 
z
" transform="scale(0.015625)"/>
       <path id="DejaVuSans-73" d="M 2834 3397 
L 2834 2853 
Q 2591 2978 2328 3040 
Q 2066 3103 1784 3103 
Q 1356 3103 1142 2972 
Q 928 2841 928 2578 
Q 928 2378 1081 2264 
Q 1234 2150 1697 2047 
L 1894 2003 
Q 2506 1872 2764 1633 
Q 3022 1394 3022 966 
Q 3022 478 2636 193 
Q 2250 -91 1575 -91 
Q 1294 -91 989 -36 
Q 684 19 347 128 
L 347 722 
Q 666 556 975 473 
Q 1284 391 1588 391 
Q 1994 391 2212 530 
Q 2431 669 2431 922 
Q 2431 1156 2273 1281 
Q 2116 1406 1581 1522 
L 1381 1569 
Q 847 1681 609 1914 
Q 372 2147 372 2553 
Q 372 3047 722 3315 
Q 1072 3584 1716 3584 
Q 2034 3584 2315 3537 
Q 2597 3491 2834 3397 
z
" transform="scale(0.015625)"/>
      </defs>
      <use xlink:href="#DejaVuSans-56"/>
      <use xlink:href="#DejaVuSans-69" x="66.158203"/>
      <use xlink:href="#DejaVuSans-72" x="93.941406"/>
      <use xlink:href="#DejaVuSans-74" x="135.054688"/>
      <use xlink:href="#DejaVuSans-75" x="174.263672"/>
      <use xlink:href="#DejaVuSans-61" x="237.642578"/>
      <use xlink:href="#DejaVuSans-6c" x="298.921875"/>
      <use xlink:href="#DejaVuSans-20" x="326.705078"/>
      <use xlink:href="#DejaVuSans-41" x="358.492188"/>
      <use xlink:href="#DejaVuSans-64" x="425.150391"/>
      <use xlink:href="#DejaVuSans-64" x="488.626953"/>
      <use xlink:href="#DejaVuSans-72" x="552.103516"/>
      <use xlink:href="#DejaVuSans-65" x="590.966797"/>
      <use xlink:href="#DejaVuSans-73" x="652.490234"/>
      <use xlink:href="#DejaVuSans-73" x="704.589844"/>
     </g>
    </g>
   </g>
   <g id="matplotlib.axis_2">
    <g id="ytick_1">
     <g id="line2d_13">
      <path d="M 44.57 57.962857 
L 831.318894 57.962857 
" clip-path="url(#pc1d5eff1b0)" style="fill: none; stroke: #b0b0b0; stroke-width: 0.8; stroke-linecap: square"/>
     </g>
     <g id="line2d_14">
      <defs>
       <path id="m204e54c956" d="M 0 0 
L -3.5 0 
" style="stroke: #000000; stroke-width: 0.8"/>
      </defs>
      <g>
       <use xlink:href="#m204e54c956" x="44.57" y="57.962857" style="stroke: #000000; stroke-width: 0.8"/>
      </g>
     </g>
     <g id="text_8">
      <!-- 0 -->
      <g transform="translate(31.2075 61.762076) scale(0.1 -0.1)">
       <use xlink:href="#DejaVuSans-30"/>
      </g>
     </g>
    </g>
    <g id="ytick_2">
     <g id="line2d_15">
      <path d="M 44.57 120.128571 
L 831.318894 120.128571 
" clip-path="url(#pc1d5eff1b0)" style="fill: none; stroke: #b0b0b0; stroke-width: 0.8; stroke-linecap: square"/>
     </g>
     <g id="line2d_16">
      <g>
       <use xlink:href="#m204e54c956" x="44.57" y="120.128571" style="stroke: #000000; stroke-width: 0.8"/>
      </g>
     </g>
     <g id="text_9">
      <!-- 2 -->
      <g transform="translate(31.2075 123.92779) scale(0.1 -0.1)">
       <use xlink:href="#DejaVuSans-32"/>
      </g>
     </g>
    </g>
    <g id="ytick_3">
     <g id="line2d_17">
      <path d="M 44.57 182.294286 
L 831.318894 182.294286 
" clip-path="url(#pc1d5eff1b0)" style="fill: none; stroke: #b0b0b0; stroke-width: 0.8; stroke-linecap: square"/>
     </g>
     <g id="line2d_18">
      <g>
       <use xlink:href="#m204e54c956" x="44.57" y="182.294286" style="stroke: #000000; stroke-width: 0.8"/>
      </g>
     </g>
     <g id="text_10">
      <!-- 4 -->
      <g transform="translate(31.2075 186.093504) scale(0.1 -0.1)">
       <use xlink:href="#DejaVuSans-34"/>
      </g>
     </g>
    </g>
    <g id="ytick_4">
     <g id="line2d_19">
      <path d="M 44.57 244.46 
L 831.318894 244.46 
" clip-path="url(#pc1d5eff1b0)" style="fill: none; stroke: #b0b0b0; stroke-width: 0.8; stroke-linecap: square"/>
     </g>
     <g id="line2d_20">
      <g>
       <use xlink:href="#m204e54c956" x="44.57" y="244.46" style="stroke: #000000; stroke-width: 0.8"/>
      </g>
     </g>
     <g id="text_11">
      <!-- 6 -->
      <g transform="translate(31.2075 248.259219) scale(0.1 -0.1)">
       <use xlink:href="#DejaVuSans-36"/>
      </g>
     </g>
    </g>
    <g id="ytick_5">
     <g id="line2d_21">
      <path d="M 44.57 306.625714 
L 831.318894 306.625714 
" clip-path="url(#pc1d5eff1b0)" style="fill: none; stroke: #b0b0b0; stroke-width: 0.8; stroke-linecap: square"/>
     </g>
     <g id="line2d_22">
      <g>
       <use xlink:href="#m204e54c956" x="44.57" y="306.625714" style="stroke: #000000; stroke-width: 0.8"/>
      </g>
     </g>
     <g id="text_12">
      <!-- 8 -->
      <g transform="translate(31.2075 310.424933) scale(0.1 -0.1)">
       <use xlink:href="#DejaVuSans-38"/>
      </g>
     </g>
    </g>
    <g id="ytick_6">
     <g id="line2d_23">
      <path d="M 44.57 368.791429 
L 831.318894 368.791429 
" clip-path="url(#pc1d5eff1b0)" style="fill: none; stroke: #b0b0b0; stroke-width: 0.8; stroke-linecap: square"/>
     </g>
     <g id="line2d_24">
      <g>
       <use xlink:href="#m204e54c956" x="44.57" y="368.791429" style="stroke: #000000; stroke-width: 0.8"/>
      </g>
     </g>
     <g id="text_13">
      <!-- 10 -->
      <g transform="translate(24.845 372.590647) scale(0.1 -0.1)">
       <defs>
        <path id="DejaVuSans-31" d="M 794 531 
L 1825 531 
L 1825 4091 
L 703 3866 
L 703 4441 
L 1819 4666 
L 2450 4666 
L 2450 531 
L 3481 531 
L 3481 0 
L 794 0 
L 794 531 
z
" transform="scale(0.015625)"/>
       </defs>
       <use xlink:href="#DejaVuSans-31"/>
       <use xlink:href="#DejaVuSans-30" x="63.623047"/>
      </g>
     </g>
    </g>
    <g id="ytick_7">
     <g id="line2d_25">
      <path d="M 44.57 430.957143 
L 831.318894 430.957143 
" clip-path="url(#pc1d5eff1b0)" style="fill: none; stroke: #b0b0b0; stroke-width: 0.8; stroke-linecap: square"/>
     </g>
     <g id="line2d_26">
      <g>
       <use xlink:href="#m204e54c956" x="44.57" y="430.957143" style="stroke: #000000; stroke-width: 0.8"/>
      </g>
     </g>
     <g id="text_14">
      <!-- 12 -->
      <g transform="translate(24.845 434.756362) scale(0.1 -0.1)">
       <use xlink:href="#DejaVuSans-31"/>
       <use xlink:href="#DejaVuSans-32" x="63.623047"/>
      </g>
     </g>
    </g>
    <g id="text_15">
     <!-- Expansion Step -->
     <g transform="translate(18.765312 283.181875) rotate(-90) scale(0.1 -0.1)">
      <defs>
       <path id="DejaVuSans-45" d="M 628 4666 
L 3578 4666 
L 3578 4134 
L 1259 4134 
L 1259 2753 
L 3481 2753 
L 3481 2222 
L 1259 2222 
L 1259 531 
L 3634 531 
L 3634 0 
L 628 0 
L 628 4666 
z
" transform="scale(0.015625)"/>
       <path id="DejaVuSans-70" d="M 1159 525 
L 1159 -1331 
L 581 -1331 
L 581 3500 
L 1159 3500 
L 1159 2969 
Q 1341 3281 1617 3432 
Q 1894 3584 2278 3584 
Q 2916 3584 3314 3078 
Q 3713 2572 3713 1747 
Q 3713 922 3314 415 
Q 2916 -91 2278 -91 
Q 1894 -91 1617 61 
Q 1341 213 1159 525 
z
M 3116 1747 
Q 3116 2381 2855 2742 
Q 2594 3103 2138 3103 
Q 1681 3103 1420 2742 
Q 1159 2381 1159 1747 
Q 1159 1113 1420 752 
Q 1681 391 2138 391 
Q 2594 391 2855 752 
Q 3116 1113 3116 1747 
z
" transform="scale(0.015625)"/>
       <path id="DejaVuSans-6e" d="M 3513 2113 
L 3513 0 
L 2938 0 
L 2938 2094 
Q 2938 2591 2744 2837 
Q 2550 3084 2163 3084 
Q 1697 3084 1428 2787 
Q 1159 2491 1159 1978 
L 1159 0 
L 581 0 
L 581 3500 
L 1159 3500 
L 1159 2956 
Q 1366 3272 1645 3428 
Q 1925 3584 2291 3584 
Q 2894 3584 3203 3211 
Q 3513 2838 3513 2113 
z
" transform="scale(0.015625)"/>
       <path id="DejaVuSans-6f" d="M 1959 3097 
Q 1497 3097 1228 2736 
Q 959 2375 959 1747 
Q 959 1119 1226 758 
Q 1494 397 1959 397 
Q 2419 397 2687 759 
Q 2956 1122 2956 1747 
Q 2956 2369 2687 2733 
Q 2419 3097 1959 3097 
z
M 1959 3584 
Q 2709 3584 3137 3096 
Q 3566 2609 3566 1747 
Q 3566 888 3137 398 
Q 2709 -91 1959 -91 
Q 1206 -91 779 398 
Q 353 888 353 1747 
Q 353 2609 779 3096 
Q 1206 3584 1959 3584 
z
" transform="scale(0.015625)"/>
       <path id="DejaVuSans-53" d="M 3425 4513 
L 3425 3897 
Q 3066 4069 2747 4153 
Q 2428 4238 2131 4238 
Q 1616 4238 1336 4038 
Q 1056 3838 1056 3469 
Q 1056 3159 1242 3001 
Q 1428 2844 1947 2747 
L 2328 2669 
Q 3034 2534 3370 2195 
Q 3706 1856 3706 1288 
Q 3706 609 3251 259 
Q 2797 -91 1919 -91 
Q 1588 -91 1214 -16 
Q 841 59 441 206 
L 441 856 
Q 825 641 1194 531 
Q 1563 422 1919 422 
Q 2459 422 2753 634 
Q 3047 847 3047 1241 
Q 3047 1584 2836 1778 
Q 2625 1972 2144 2069 
L 1759 2144 
Q 1053 2284 737 2584 
Q 422 2884 422 3419 
Q 422 4038 858 4394 
Q 1294 4750 2059 4750 
Q 2388 4750 2728 4690 
Q 3069 4631 3425 4513 
z
" transform="scale(0.015625)"/>
      </defs>
      <use xlink:href="#DejaVuSans-45"/>
      <use xlink:href="#DejaVuSans-78" x="63.183594"/>
      <use xlink:href="#DejaVuSans-70" x="122.363281"/>
      <use xlink:href="#DejaVuSans-61" x="185.839844"/>
      <use xlink:href="#DejaVuSans-6e" x="247.119141"/>
      <use xlink:href="#DejaVuSans-73" x="310.498047"/>
      <use xlink:href="#DejaVuSans-69" x="362.597656"/>
      <use xlink:href="#DejaVuSans-6f" x="390.380859"/>
      <use xlink:href="#DejaVuSans-6e" x="451.5625"/>
      <use xlink:href="#DejaVuSans-20" x="514.941406"/>
      <use xlink:href="#DejaVuSans-53" x="546.728516"/>
      <use xlink:href="#DejaVuSans-74" x="610.205078"/>
      <use xlink:href="#DejaVuSans-65" x="649.414062"/>
      <use xlink:href="#DejaVuSans-70" x="710.9375"/>
     </g>
    </g>
   </g>
   <g id="patch_26">
    <path d="M 44.57 462.04 
L 44.57 26.88 
" style="fill: none; stroke: #000000; stroke-width: 0.8; stroke-linejoin: miter; stroke-linecap: square"/>
   </g>
   <g id="patch_27">
    <path d="M 831.318894 462.04 
L 831.318894 26.88 
" style="fill: none; stroke: #000000; stroke-width: 0.8; stroke-linejoin: miter; stroke-linecap: square"/>
   </g>
   <g id="patch_28">
    <path d="M 44.57 462.04 
L 831.318894 462.04 
" style="fill: none; stroke: #000000; stroke-width: 0.8; stroke-linejoin: miter; stroke-linecap: square"/>
   </g>
   <g id="patch_29">
    <path d="M 44.57 26.88 
L 831.318894 26.88 
" style="fill: none; stroke: #000000; stroke-width: 0.8; stroke-linejoin: miter; stroke-linecap: square"/>
   </g>
   <g id="text_16">
    <!-- mmap #1 -->
    <g transform="translate(813.715981 65.33392) scale(0.07 -0.07)">
     <defs>
      <path id="DejaVuSans-6d" d="M 3328 2828 
Q 3544 3216 3844 3400 
Q 4144 3584 4550 3584 
Q 5097 3584 5394 3201 
Q 5691 2819 5691 2113 
L 5691 0 
L 5113 0 
L 5113 2094 
Q 5113 2597 4934 2840 
Q 4756 3084 4391 3084 
Q 3944 3084 3684 2787 
Q 3425 2491 3425 1978 
L 3425 0 
L 2847 0 
L 2847 2094 
Q 2847 2600 2669 2842 
Q 2491 3084 2119 3084 
Q 1678 3084 1418 2786 
Q 1159 2488 1159 1978 
L 1159 0 
L 581 0 
L 581 3500 
L 1159 3500 
L 1159 2956 
Q 1356 3278 1631 3431 
Q 1906 3584 2284 3584 
Q 2666 3584 2933 3390 
Q 3200 3197 3328 2828 
z
" transform="scale(0.015625)"/>
      <path id="DejaVuSans-23" d="M 3272 2816 
L 2363 2816 
L 2100 1772 
L 3016 1772 
L 3272 2816 
z
M 2803 4594 
L 2478 3297 
L 3391 3297 
L 3719 4594 
L 4219 4594 
L 3897 3297 
L 4872 3297 
L 4872 2816 
L 3775 2816 
L 3519 1772 
L 4513 1772 
L 4513 1294 
L 3397 1294 
L 3072 0 
L 2572 0 
L 2894 1294 
L 1978 1294 
L 1656 0 
L 1153 0 
L 1478 1294 
L 494 1294 
L 494 1772 
L 1594 1772 
L 1856 2816 
L 850 2816 
L 850 3297 
L 1978 3297 
L 2297 4594 
L 2803 4594 
z
" transform="scale(0.015625)"/>
     </defs>
     <use xlink:href="#DejaVuSans-6d"/>
     <use xlink:href="#DejaVuSans-6d" x="97.412109"/>
     <use xlink:href="#DejaVuSans-61" x="194.824219"/>
     <use xlink:href="#DejaVuSans-70" x="256.103516"/>
     <use xlink:href="#DejaVuSans-20" x="319.580078"/>
     <use xlink:href="#DejaVuSans-23" x="351.367188"/>
     <use xlink:href="#DejaVuSans-31" x="435.15625"/>
    </g>
   </g>
   <g id="text_17">
    <!-- mmap #2 -->
    <g transform="translate(813.424841 96.416777) scale(0.07 -0.07)">
     <use xlink:href="#DejaVuSans-6d"/>
     <use xlink:href="#DejaVuSans-6d" x="97.412109"/>
     <use xlink:href="#DejaVuSans-61" x="194.824219"/>
     <use xlink:href="#DejaVuSans-70" x="256.103516"/>
     <use xlink:href="#DejaVuSans-20" x="319.580078"/>
     <use xlink:href="#DejaVuSans-23" x="351.367188"/>
     <use xlink:href="#DejaVuSans-32" x="435.15625"/>
    </g>
   </g>
   <g id="text_18">
    <!-- munmap #1 -->
    <g transform="translate(809.279731 107.295777) scale(0.07 -0.07)">
     <use xlink:href="#DejaVuSans-6d"/>
     <use xlink:href="#DejaVuSans-75" x="97.412109"/>
     <use xlink:href="#DejaVuSans-6e" x="160.791016"/>
     <use xlink:href="#DejaVuSans-6d" x="224.169922"/>
     <use xlink:href="#DejaVuSans-61" x="321.582031"/>
     <use xlink:href="#DejaVuSans-70" x="382.861328"/>
     <use xlink:href="#DejaVuSans-20" x="446.337891"/>
     <use xlink:href="#DejaVuSans-23" x="478.125"/>
     <use xlink:href="#DejaVuSans-31" x="561.914062"/>
    </g>
   </g>
   <g id="text_19">
    <!-- mmap #3 -->
    <g transform="translate(812.845564 127.499634) scale(0.07 -0.07)">
     <use xlink:href="#DejaVuSans-6d"/>
     <use xlink:href="#DejaVuSans-6d" x="97.412109"/>
     <use xlink:href="#DejaVuSans-61" x="194.824219"/>
     <use xlink:href="#DejaVuSans-70" x="256.103516"/>
     <use xlink:href="#DejaVuSans-20" x="319.580078"/>
     <use xlink:href="#DejaVuSans-23" x="351.367188"/>
     <use xlink:href="#DejaVuSans-33" x="435.15625"/>
    </g>
   </g>
   <g id="text_20">
    <!-- munmap #2 -->
    <g transform="translate(808.988591 138.378634) scale(0.07 -0.07)">
     <use xlink:href="#DejaVuSans-6d"/>
     <use xlink:href="#DejaVuSans-75" x="97.412109"/>
     <use xlink:href="#DejaVuSans-6e" x="160.791016"/>
     <use xlink:href="#DejaVuSans-6d" x="224.169922"/>
     <use xlink:href="#DejaVuSans-61" x="321.582031"/>
     <use xlink:href="#DejaVuSans-70" x="382.861328"/>
     <use xlink:href="#DejaVuSans-20" x="446.337891"/>
     <use xlink:href="#DejaVuSans-23" x="478.125"/>
     <use xlink:href="#DejaVuSans-32" x="561.914062"/>
    </g>
   </g>
   <g id="text_21">
    <!-- mmap #4 -->
    <g transform="translate(811.69001 158.582491) scale(0.07 -0.07)">
     <use xlink:href="#DejaVuSans-6d"/>
     <use xlink:href="#DejaVuSans-6d" x="97.412109"/>
     <use xlink:href="#DejaVuSans-61" x="194.824219"/>
     <use xlink:href="#DejaVuSans-70" x="256.103516"/>
     <use xlink:href="#DejaVuSans-20" x="319.580078"/>
     <use xlink:href="#DejaVuSans-23" x="351.367188"/>
     <use xlink:href="#DejaVuSans-34" x="435.15625"/>
    </g>
   </g>
   <g id="text_22">
    <!-- munmap #3 -->
    <g transform="translate(808.409314 169.461491) scale(0.07 -0.07)">
     <use xlink:href="#DejaVuSans-6d"/>
     <use xlink:href="#DejaVuSans-75" x="97.412109"/>
     <use xlink:href="#DejaVuSans-6e" x="160.791016"/>
     <use xlink:href="#DejaVuSans-6d" x="224.169922"/>
     <use xlink:href="#DejaVuSans-61" x="321.582031"/>
     <use xlink:href="#DejaVuSans-70" x="382.861328"/>
     <use xlink:href="#DejaVuSans-20" x="446.337891"/>
     <use xlink:href="#DejaVuSans-23" x="478.125"/>
     <use xlink:href="#DejaVuSans-33" x="561.914062"/>
    </g>
   </g>
   <g id="text_23">
    <!-- mmap #5 -->
    <g transform="translate(809.381904 189.665348) scale(0.07 -0.07)">
     <use xlink:href="#DejaVuSans-6d"/>
     <use xlink:href="#DejaVuSans-6d" x="97.412109"/>
     <use xlink:href="#DejaVuSans-61" x="194.824219"/>
     <use xlink:href="#DejaVuSans-70" x="256.103516"/>
     <use xlink:href="#DejaVuSans-20" x="319.580078"/>
     <use xlink:href="#DejaVuSans-23" x="351.367188"/>
     <use xlink:href="#DejaVuSans-35" x="435.15625"/>
    </g>
   </g>
   <g id="text_24">
    <!-- munmap #4 -->
    <g transform="translate(807.25376 200.544348) scale(0.07 -0.07)">
     <use xlink:href="#DejaVuSans-6d"/>
     <use xlink:href="#DejaVuSans-75" x="97.412109"/>
     <use xlink:href="#DejaVuSans-6e" x="160.791016"/>
     <use xlink:href="#DejaVuSans-6d" x="224.169922"/>
     <use xlink:href="#DejaVuSans-61" x="321.582031"/>
     <use xlink:href="#DejaVuSans-70" x="382.861328"/>
     <use xlink:href="#DejaVuSans-20" x="446.337891"/>
     <use xlink:href="#DejaVuSans-23" x="478.125"/>
     <use xlink:href="#DejaVuSans-34" x="561.914062"/>
    </g>
   </g>
   <g id="text_25">
    <!-- mmap #6 -->
    <g transform="translate(804.768694 220.748205) scale(0.07 -0.07)">
     <use xlink:href="#DejaVuSans-6d"/>
     <use xlink:href="#DejaVuSans-6d" x="97.412109"/>
     <use xlink:href="#DejaVuSans-61" x="194.824219"/>
     <use xlink:href="#DejaVuSans-70" x="256.103516"/>
     <use xlink:href="#DejaVuSans-20" x="319.580078"/>
     <use xlink:href="#DejaVuSans-23" x="351.367188"/>
     <use xlink:href="#DejaVuSans-36" x="435.15625"/>
    </g>
   </g>
   <g id="text_26">
    <!-- munmap #5 -->
    <g transform="translate(804.945654 231.627205) scale(0.07 -0.07)">
     <use xlink:href="#DejaVuSans-6d"/>
     <use xlink:href="#DejaVuSans-75" x="97.412109"/>
     <use xlink:href="#DejaVuSans-6e" x="160.791016"/>
     <use xlink:href="#DejaVuSans-6d" x="224.169922"/>
     <use xlink:href="#DejaVuSans-61" x="321.582031"/>
     <use xlink:href="#DejaVuSans-70" x="382.861328"/>
     <use xlink:href="#DejaVuSans-20" x="446.337891"/>
     <use xlink:href="#DejaVuSans-23" x="478.125"/>
     <use xlink:href="#DejaVuSans-35" x="561.914062"/>
    </g>
   </g>
   <g id="text_27">
    <!-- mmap #7 -->
    <g transform="translate(795.545276 251.831063) scale(0.07 -0.07)">
     <use xlink:href="#DejaVuSans-6d"/>
     <use xlink:href="#DejaVuSans-6d" x="97.412109"/>
     <use xlink:href="#DejaVuSans-61" x="194.824219"/>
     <use xlink:href="#DejaVuSans-70" x="256.103516"/>
     <use xlink:href="#DejaVuSans-20" x="319.580078"/>
     <use xlink:href="#DejaVuSans-23" x="351.367188"/>
     <use xlink:href="#DejaVuSans-37" x="435.15625"/>
    </g>
   </g>
   <g id="text_28">
    <!-- munmap #6 -->
    <g transform="translate(800.332444 262.710063) scale(0.07 -0.07)">
     <use xlink:href="#DejaVuSans-6d"/>
     <use xlink:href="#DejaVuSans-75" x="97.412109"/>
     <use xlink:href="#DejaVuSans-6e" x="160.791016"/>
     <use xlink:href="#DejaVuSans-6d" x="224.169922"/>
     <use xlink:href="#DejaVuSans-61" x="321.582031"/>
     <use xlink:href="#DejaVuSans-70" x="382.861328"/>
     <use xlink:href="#DejaVuSans-20" x="446.337891"/>
     <use xlink:href="#DejaVuSans-23" x="478.125"/>
     <use xlink:href="#DejaVuSans-36" x="561.914062"/>
    </g>
   </g>
   <g id="text_29">
    <!-- mmap #8 -->
    <g transform="translate(777.10144 282.91392) scale(0.07 -0.07)">
     <use xlink:href="#DejaVuSans-6d"/>
     <use xlink:href="#DejaVuSans-6d" x="97.412109"/>
     <use xlink:href="#DejaVuSans-61" x="194.824219"/>
     <use xlink:href="#DejaVuSans-70" x="256.103516"/>
     <use xlink:href="#DejaVuSans-20" x="319.580078"/>
     <use xlink:href="#DejaVuSans-23" x="351.367188"/>
     <use xlink:href="#DejaVuSans-38" x="435.15625"/>
    </g>
   </g>
   <g id="text_30">
    <!-- munmap #7 -->
    <g transform="translate(791.109026 293.79292) scale(0.07 -0.07)">
     <use xlink:href="#DejaVuSans-6d"/>
     <use xlink:href="#DejaVuSans-75" x="97.412109"/>
     <use xlink:href="#DejaVuSans-6e" x="160.791016"/>
     <use xlink:href="#DejaVuSans-6d" x="224.169922"/>
     <use xlink:href="#DejaVuSans-61" x="321.582031"/>
     <use xlink:href="#DejaVuSans-70" x="382.861328"/>
     <use xlink:href="#DejaVuSans-20" x="446.337891"/>
     <use xlink:href="#DejaVuSans-23" x="478.125"/>
     <use xlink:href="#DejaVuSans-37" x="561.914062"/>
    </g>
   </g>
   <g id="text_31">
    <!-- mmap #9 -->
    <g transform="translate(740.216771 313.996777) scale(0.07 -0.07)">
     <use xlink:href="#DejaVuSans-6d"/>
     <use xlink:href="#DejaVuSans-6d" x="97.412109"/>
     <use xlink:href="#DejaVuSans-61" x="194.824219"/>
     <use xlink:href="#DejaVuSans-70" x="256.103516"/>
     <use xlink:href="#DejaVuSans-20" x="319.580078"/>
     <use xlink:href="#DejaVuSans-23" x="351.367188"/>
     <use xlink:href="#DejaVuSans-39" x="435.15625"/>
    </g>
   </g>
   <g id="text_32">
    <!-- munmap #8 -->
    <g transform="translate(772.66519 324.875777) scale(0.07 -0.07)">
     <use xlink:href="#DejaVuSans-6d"/>
     <use xlink:href="#DejaVuSans-75" x="97.412109"/>
     <use xlink:href="#DejaVuSans-6e" x="160.791016"/>
     <use xlink:href="#DejaVuSans-6d" x="224.169922"/>
     <use xlink:href="#DejaVuSans-61" x="321.582031"/>
     <use xlink:href="#DejaVuSans-70" x="382.861328"/>
     <use xlink:href="#DejaVuSans-20" x="446.337891"/>
     <use xlink:href="#DejaVuSans-23" x="478.125"/>
     <use xlink:href="#DejaVuSans-38" x="561.914062"/>
    </g>
   </g>
   <g id="text_33">
    <!-- mmap #10 -->
    <g transform="translate(664.223558 345.079634) scale(0.07 -0.07)">
     <use xlink:href="#DejaVuSans-6d"/>
     <use xlink:href="#DejaVuSans-6d" x="97.412109"/>
     <use xlink:href="#DejaVuSans-61" x="194.824219"/>
     <use xlink:href="#DejaVuSans-70" x="256.103516"/>
     <use xlink:href="#DejaVuSans-20" x="319.580078"/>
     <use xlink:href="#DejaVuSans-23" x="351.367188"/>
     <use xlink:href="#DejaVuSans-31" x="435.15625"/>
     <use xlink:href="#DejaVuSans-30" x="498.779297"/>
    </g>
   </g>
   <g id="text_34">
    <!-- munmap #9 -->
    <g transform="translate(735.780521 355.958634) scale(0.07 -0.07)">
     <use xlink:href="#DejaVuSans-6d"/>
     <use xlink:href="#DejaVuSans-75" x="97.412109"/>
     <use xlink:href="#DejaVuSans-6e" x="160.791016"/>
     <use xlink:href="#DejaVuSans-6d" x="224.169922"/>
     <use xlink:href="#DejaVuSans-61" x="321.582031"/>
     <use xlink:href="#DejaVuSans-70" x="382.861328"/>
     <use xlink:href="#DejaVuSans-20" x="446.337891"/>
     <use xlink:href="#DejaVuSans-23" x="478.125"/>
     <use xlink:href="#DejaVuSans-39" x="561.914062"/>
    </g>
   </g>
   <g id="text_35">
    <!-- mmap #11 -->
    <g transform="translate(516.693883 376.162491) scale(0.07 -0.07)">
     <use xlink:href="#DejaVuSans-6d"/>
     <use xlink:href="#DejaVuSans-6d" x="97.412109"/>
     <use xlink:href="#DejaVuSans-61" x="194.824219"/>
     <use xlink:href="#DejaVuSans-70" x="256.103516"/>
     <use xlink:href="#DejaVuSans-20" x="319.580078"/>
     <use xlink:href="#DejaVuSans-23" x="351.367188"/>
     <use xlink:href="#DejaVuSans-31" x="435.15625"/>
     <use xlink:href="#DejaVuSans-31" x="498.779297"/>
    </g>
   </g>
   <g id="text_36">
    <!-- munmap #10 -->
    <g transform="translate(659.787308 387.041491) scale(0.07 -0.07)">
     <use xlink:href="#DejaVuSans-6d"/>
     <use xlink:href="#DejaVuSans-75" x="97.412109"/>
     <use xlink:href="#DejaVuSans-6e" x="160.791016"/>
     <use xlink:href="#DejaVuSans-6d" x="224.169922"/>
     <use xlink:href="#DejaVuSans-61" x="321.582031"/>
     <use xlink:href="#DejaVuSans-70" x="382.861328"/>
     <use xlink:href="#DejaVuSans-20" x="446.337891"/>
     <use xlink:href="#DejaVuSans-23" x="478.125"/>
     <use xlink:href="#DejaVuSans-31" x="561.914062"/>
     <use xlink:href="#DejaVuSans-30" x="625.537109"/>
    </g>
   </g>
   <g id="text_37">
    <!-- mmap #12 -->
    <g transform="translate(221.637536 407.245348) scale(0.07 -0.07)">
     <use xlink:href="#DejaVuSans-6d"/>
     <use xlink:href="#DejaVuSans-6d" x="97.412109"/>
     <use xlink:href="#DejaVuSans-61" x="194.824219"/>
     <use xlink:href="#DejaVuSans-70" x="256.103516"/>
     <use xlink:href="#DejaVuSans-20" x="319.580078"/>
     <use xlink:href="#DejaVuSans-23" x="351.367188"/>
     <use xlink:href="#DejaVuSans-31" x="435.15625"/>
     <use xlink:href="#DejaVuSans-32" x="498.779297"/>
    </g>
   </g>
   <g id="text_38">
    <!-- munmap #11 -->
    <g transform="translate(512.257633 418.124348) scale(0.07 -0.07)">
     <use xlink:href="#DejaVuSans-6d"/>
     <use xlink:href="#DejaVuSans-75" x="97.412109"/>
     <use xlink:href="#DejaVuSans-6e" x="160.791016"/>
     <use xlink:href="#DejaVuSans-6d" x="224.169922"/>
     <use xlink:href="#DejaVuSans-61" x="321.582031"/>
     <use xlink:href="#DejaVuSans-70" x="382.861328"/>
     <use xlink:href="#DejaVuSans-20" x="446.337891"/>
     <use xlink:href="#DejaVuSans-23" x="478.125"/>
     <use xlink:href="#DejaVuSans-31" x="561.914062"/>
     <use xlink:href="#DejaVuSans-31" x="625.537109"/>
    </g>
   </g>
   <g id="text_39">
    <!-- mmap / munmap Memory Changes (Vector Expansion) -->
    <g transform="translate(273.327885 20.88) scale(0.12 -0.12)">
     <defs>
      <path id="DejaVuSans-2f" d="M 1625 4666 
L 2156 4666 
L 531 -594 
L 0 -594 
L 1625 4666 
z
" transform="scale(0.015625)"/>
      <path id="DejaVuSans-4d" d="M 628 4666 
L 1569 4666 
L 2759 1491 
L 3956 4666 
L 4897 4666 
L 4897 0 
L 4281 0 
L 4281 4097 
L 3078 897 
L 2444 897 
L 1241 4097 
L 1241 0 
L 628 0 
L 628 4666 
z
" transform="scale(0.015625)"/>
      <path id="DejaVuSans-79" d="M 2059 -325 
Q 1816 -950 1584 -1140 
Q 1353 -1331 966 -1331 
L 506 -1331 
L 506 -850 
L 844 -850 
Q 1081 -850 1212 -737 
Q 1344 -625 1503 -206 
L 1606 56 
L 191 3500 
L 800 3500 
L 1894 763 
L 2988 3500 
L 3597 3500 
L 2059 -325 
z
" transform="scale(0.015625)"/>
      <path id="DejaVuSans-43" d="M 4122 4306 
L 4122 3641 
Q 3803 3938 3442 4084 
Q 3081 4231 2675 4231 
Q 1875 4231 1450 3742 
Q 1025 3253 1025 2328 
Q 1025 1406 1450 917 
Q 1875 428 2675 428 
Q 3081 428 3442 575 
Q 3803 722 4122 1019 
L 4122 359 
Q 3791 134 3420 21 
Q 3050 -91 2638 -91 
Q 1578 -91 968 557 
Q 359 1206 359 2328 
Q 359 3453 968 4101 
Q 1578 4750 2638 4750 
Q 3056 4750 3426 4639 
Q 3797 4528 4122 4306 
z
" transform="scale(0.015625)"/>
      <path id="DejaVuSans-68" d="M 3513 2113 
L 3513 0 
L 2938 0 
L 2938 2094 
Q 2938 2591 2744 2837 
Q 2550 3084 2163 3084 
Q 1697 3084 1428 2787 
Q 1159 2491 1159 1978 
L 1159 0 
L 581 0 
L 581 4863 
L 1159 4863 
L 1159 2956 
Q 1366 3272 1645 3428 
Q 1925 3584 2291 3584 
Q 2894 3584 3203 3211 
Q 3513 2838 3513 2113 
z
" transform="scale(0.015625)"/>
      <path id="DejaVuSans-67" d="M 2906 1791 
Q 2906 2416 2648 2759 
Q 2391 3103 1925 3103 
Q 1463 3103 1205 2759 
Q 947 2416 947 1791 
Q 947 1169 1205 825 
Q 1463 481 1925 481 
Q 2391 481 2648 825 
Q 2906 1169 2906 1791 
z
M 3481 434 
Q 3481 -459 3084 -895 
Q 2688 -1331 1869 -1331 
Q 1566 -1331 1297 -1286 
Q 1028 -1241 775 -1147 
L 775 -588 
Q 1028 -725 1275 -790 
Q 1522 -856 1778 -856 
Q 2344 -856 2625 -561 
Q 2906 -266 2906 331 
L 2906 616 
Q 2728 306 2450 153 
Q 2172 0 1784 0 
Q 1141 0 747 490 
Q 353 981 353 1791 
Q 353 2603 747 3093 
Q 1141 3584 1784 3584 
Q 2172 3584 2450 3431 
Q 2728 3278 2906 2969 
L 2906 3500 
L 3481 3500 
L 3481 434 
z
" transform="scale(0.015625)"/>
      <path id="DejaVuSans-28" d="M 1984 4856 
Q 1566 4138 1362 3434 
Q 1159 2731 1159 2009 
Q 1159 1288 1364 580 
Q 1569 -128 1984 -844 
L 1484 -844 
Q 1016 -109 783 600 
Q 550 1309 550 2009 
Q 550 2706 781 3412 
Q 1013 4119 1484 4856 
L 1984 4856 
z
" transform="scale(0.015625)"/>
      <path id="DejaVuSans-29" d="M 513 4856 
L 1013 4856 
Q 1481 4119 1714 3412 
Q 1947 2706 1947 2009 
Q 1947 1309 1714 600 
Q 1481 -109 1013 -844 
L 513 -844 
Q 928 -128 1133 580 
Q 1338 1288 1338 2009 
Q 1338 2731 1133 3434 
Q 928 4138 513 4856 
z
" transform="scale(0.015625)"/>
     </defs>
     <use xlink:href="#DejaVuSans-6d"/>
     <use xlink:href="#DejaVuSans-6d" x="97.412109"/>
     <use xlink:href="#DejaVuSans-61" x="194.824219"/>
     <use xlink:href="#DejaVuSans-70" x="256.103516"/>
     <use xlink:href="#DejaVuSans-20" x="319.580078"/>
     <use xlink:href="#DejaVuSans-2f" x="351.367188"/>
     <use xlink:href="#DejaVuSans-20" x="385.058594"/>
     <use xlink:href="#DejaVuSans-6d" x="416.845703"/>
     <use xlink:href="#DejaVuSans-75" x="514.257812"/>
     <use xlink:href="#DejaVuSans-6e" x="577.636719"/>
     <use xlink:href="#DejaVuSans-6d" x="641.015625"/>
     <use xlink:href="#DejaVuSans-61" x="738.427734"/>
     <use xlink:href="#DejaVuSans-70" x="799.707031"/>
     <use xlink:href="#DejaVuSans-20" x="863.183594"/>
     <use xlink:href="#DejaVuSans-4d" x="894.970703"/>
     <use xlink:href="#DejaVuSans-65" x="981.25"/>
     <use xlink:href="#DejaVuSans-6d" x="1042.773438"/>
     <use xlink:href="#DejaVuSans-6f" x="1140.185547"/>
     <use xlink:href="#DejaVuSans-72" x="1201.367188"/>
     <use xlink:href="#DejaVuSans-79" x="1242.480469"/>
     <use xlink:href="#DejaVuSans-20" x="1301.660156"/>
     <use xlink:href="#DejaVuSans-43" x="1333.447266"/>
     <use xlink:href="#DejaVuSans-68" x="1403.271484"/>
     <use xlink:href="#DejaVuSans-61" x="1466.650391"/>
     <use xlink:href="#DejaVuSans-6e" x="1527.929688"/>
     <use xlink:href="#DejaVuSans-67" x="1591.308594"/>
     <use xlink:href="#DejaVuSans-65" x="1654.785156"/>
     <use xlink:href="#DejaVuSans-73" x="1716.308594"/>
     <use xlink:href="#DejaVuSans-20" x="1768.408203"/>
     <use xlink:href="#DejaVuSans-28" x="1800.195312"/>
     <use xlink:href="#DejaVuSans-56" x="1839.208984"/>
     <use xlink:href="#DejaVuSans-65" x="1899.867188"/>
     <use xlink:href="#DejaVuSans-63" x="1961.390625"/>
     <use xlink:href="#DejaVuSans-74" x="2016.371094"/>
     <use xlink:href="#DejaVuSans-6f" x="2055.580078"/>
     <use xlink:href="#DejaVuSans-72" x="2116.761719"/>
     <use xlink:href="#DejaVuSans-20" x="2157.875"/>
     <use xlink:href="#DejaVuSans-45" x="2189.662109"/>
     <use xlink:href="#DejaVuSans-78" x="2252.845703"/>
     <use xlink:href="#DejaVuSans-70" x="2312.025391"/>
     <use xlink:href="#DejaVuSans-61" x="2375.501953"/>
     <use xlink:href="#DejaVuSans-6e" x="2436.78125"/>
     <use xlink:href="#DejaVuSans-73" x="2500.160156"/>
     <use xlink:href="#DejaVuSans-69" x="2552.259766"/>
     <use xlink:href="#DejaVuSans-6f" x="2580.042969"/>
     <use xlink:href="#DejaVuSans-6e" x="2641.224609"/>
     <use xlink:href="#DejaVuSans-29" x="2704.603516"/>
    </g>
   </g>
   <g id="legend_1">
    <g id="patch_30">
     <path d="M 676.948582 64.23625 
L 824.318894 64.23625 
Q 826.318894 64.23625 826.318894 62.23625 
L 826.318894 33.88 
Q 826.318894 31.88 824.318894 31.88 
L 676.948582 31.88 
Q 674.948582 31.88 674.948582 33.88 
L 674.948582 62.23625 
Q 674.948582 64.23625 676.948582 64.23625 
z
" style="fill: #ffffff; opacity: 0.8; stroke: #cccccc; stroke-linejoin: miter"/>
    </g>
    <g id="patch_31">
     <path d="M 678.948582 43.478437 
L 698.948582 43.478437 
L 698.948582 36.478437 
L 678.948582 36.478437 
z
" style="fill: #87ceeb; stroke: #87ceeb; stroke-linejoin: miter"/>
    </g>
    <g id="text_40">
     <!-- mmap (new allocation) -->
     <g transform="translate(706.948582 43.478437) scale(0.1 -0.1)">
      <defs>
       <path id="DejaVuSans-77" d="M 269 3500 
L 844 3500 
L 1563 769 
L 2278 3500 
L 2956 3500 
L 3675 769 
L 4391 3500 
L 4966 3500 
L 4050 0 
L 3372 0 
L 2619 2869 
L 1863 0 
L 1184 0 
L 269 3500 
z
" transform="scale(0.015625)"/>
      </defs>
      <use xlink:href="#DejaVuSans-6d"/>
      <use xlink:href="#DejaVuSans-6d" x="97.412109"/>
      <use xlink:href="#DejaVuSans-61" x="194.824219"/>
      <use xlink:href="#DejaVuSans-70" x="256.103516"/>
      <use xlink:href="#DejaVuSans-20" x="319.580078"/>
      <use xlink:href="#DejaVuSans-28" x="351.367188"/>
      <use xlink:href="#DejaVuSans-6e" x="390.380859"/>
      <use xlink:href="#DejaVuSans-65" x="453.759766"/>
      <use xlink:href="#DejaVuSans-77" x="515.283203"/>
      <use xlink:href="#DejaVuSans-20" x="597.070312"/>
      <use xlink:href="#DejaVuSans-61" x="628.857422"/>
      <use xlink:href="#DejaVuSans-6c" x="690.136719"/>
      <use xlink:href="#DejaVuSans-6c" x="717.919922"/>
      <use xlink:href="#DejaVuSans-6f" x="745.703125"/>
      <use xlink:href="#DejaVuSans-63" x="806.884766"/>
      <use xlink:href="#DejaVuSans-61" x="861.865234"/>
      <use xlink:href="#DejaVuSans-74" x="923.144531"/>
      <use xlink:href="#DejaVuSans-69" x="962.353516"/>
      <use xlink:href="#DejaVuSans-6f" x="990.136719"/>
      <use xlink:href="#DejaVuSans-6e" x="1051.318359"/>
      <use xlink:href="#DejaVuSans-29" x="1114.697266"/>
     </g>
    </g>
    <g id="patch_32">
     <path d="M 678.948582 58.156562 
L 698.948582 58.156562 
L 698.948582 51.156562 
L 678.948582 51.156562 
z
" style="fill: #f08080; stroke: #f08080; stroke-linejoin: miter"/>
    </g>
    <g id="text_41">
     <!-- munmap (release old) -->
     <g transform="translate(706.948582 58.156562) scale(0.1 -0.1)">
      <use xlink:href="#DejaVuSans-6d"/>
      <use xlink:href="#DejaVuSans-75" x="97.412109"/>
      <use xlink:href="#DejaVuSans-6e" x="160.791016"/>
      <use xlink:href="#DejaVuSans-6d" x="224.169922"/>
      <use xlink:href="#DejaVuSans-61" x="321.582031"/>
      <use xlink:href="#DejaVuSans-70" x="382.861328"/>
      <use xlink:href="#DejaVuSans-20" x="446.337891"/>
      <use xlink:href="#DejaVuSans-28" x="478.125"/>
      <use xlink:href="#DejaVuSans-72" x="517.138672"/>
      <use xlink:href="#DejaVuSans-65" x="556.001953"/>
      <use xlink:href="#DejaVuSans-6c" x="617.525391"/>
      <use xlink:href="#DejaVuSans-65" x="645.308594"/>
      <use xlink:href="#DejaVuSans-61" x="706.832031"/>
      <use xlink:href="#DejaVuSans-73" x="768.111328"/>
      <use xlink:href="#DejaVuSans-65" x="820.210938"/>
      <use xlink:href="#DejaVuSans-20" x="881.734375"/>
      <use xlink:href="#DejaVuSans-6f" x="913.521484"/>
      <use xlink:href="#DejaVuSans-6c" x="974.703125"/>
      <use xlink:href="#DejaVuSans-64" x="1002.486328"/>
      <use xlink:href="#DejaVuSans-29" x="1065.962891"/>
     </g>
    </g>
   </g>
  </g>
 </g>
 <defs>
  <clipPath id="pc1d5eff1b0">
   <rect x="44.57" y="26.88" width="786.748894" height="435.16"/>
  </clipPath>
 </defs>
</svg>
