<?xml version="1.0" encoding="UTF-8" standalone="no"?>
<!DOCTYPE svg PUBLIC "-//W3C//DTD SVG 1.1//EN"
 "http://www.w3.org/Graphics/SVG/1.1/DTD/svg11.dtd">
<!-- Generated by graphviz version 13.1.0 (20250701.0955)
 -->
<!-- Title: G Pages: 1 -->
<svg width="2326pt" height="201pt"
 viewBox="0.00 0.00 2326.00 201.00" xmlns="http://www.w3.org/2000/svg" xmlns:xlink="http://www.w3.org/1999/xlink">
<g id="graph0" class="graph" transform="scale(1 1) rotate(0) translate(4 197)">
<title>G</title>
<polygon fill="white" stroke="none" points="-4,4 -4,-197 2321.75,-197 2321.75,4 -4,4"/>
<!-- object1 -->
<g id="node1" class="node">
<title>object1</title>
<path fill="white" stroke="black" stroke-width="2" d="M12,-31.25C12,-31.25 341.25,-31.25 341.25,-31.25 347.25,-31.25 353.25,-37.25 353.25,-43.25 353.25,-43.25 353.25,-149.75 353.25,-149.75 353.25,-155.75 347.25,-161.75 341.25,-161.75 341.25,-161.75 12,-161.75 12,-161.75 6,-161.75 0,-155.75 0,-149.75 0,-149.75 0,-43.25 0,-43.25 0,-37.25 6,-31.25 12,-31.25"/>
<polygon fill="white" stroke="none" points="8,-35.25 8,-157.75 345.25,-157.75 345.25,-35.25 8,-35.25"/>
<polygon fill="black" stroke="none" points="10,-133.25 10,-155.75 181,-155.75 181,-133.25 10,-133.25"/>
<text xml:space="preserve" text-anchor="start" x="13" y="-139.45" font-family="Courier New" font-size="14.00" fill="white">#1</text>
<polygon fill="black" stroke="none" points="183,-133.25 183,-155.75 343.25,-155.75 343.25,-133.25 183,-133.25"/>
<text xml:space="preserve" text-anchor="start" x="233" y="-139.45" font-family="Courier New" font-size="14.00" fill="white">think\Process</text>
<text xml:space="preserve" text-anchor="start" x="13" y="-114.95" font-family="Courier New" font-size="14.00">&#39;processPipes&#39;</text>
<text xml:space="preserve" text-anchor="start" x="186" y="-114.95" font-family="Courier New" font-size="14.00">#2</text>
<text xml:space="preserve" text-anchor="start" x="13" y="-90.45" font-family="Courier New" font-size="14.00">&#39;processInformation&#39;</text>
<polygon fill="white" stroke="none" points="186,-40.25 186,-103.75 340.25,-103.75 340.25,-40.25 186,-40.25"/>
<text xml:space="preserve" text-anchor="start" x="189" y="-87.45" font-family="Courier New" font-size="14.00">[</text>
<text xml:space="preserve" text-anchor="start" x="193" y="-66.95" font-family="Courier New" font-size="14.00">&#39;running&#39; =&gt; </text>
<text xml:space="preserve" text-anchor="start" x="304.25" y="-66.95" font-family="Courier New" font-size="14.00">true</text>
<text xml:space="preserve" text-anchor="start" x="189" y="-46.45" font-family="Courier New" font-size="14.00">]</text>
</g>
<!-- object2 -->
<g id="node2" class="node">
<title>object2</title>
<path fill="white" stroke="black" d="M401.25,-42.5C401.25,-42.5 658.75,-42.5 658.75,-42.5 664.75,-42.5 670.75,-48.5 670.75,-54.5 670.75,-54.5 670.75,-138.5 670.75,-138.5 670.75,-144.5 664.75,-150.5 658.75,-150.5 658.75,-150.5 401.25,-150.5 401.25,-150.5 395.25,-150.5 389.25,-144.5 389.25,-138.5 389.25,-138.5 389.25,-54.5 389.25,-54.5 389.25,-48.5 395.25,-42.5 401.25,-42.5"/>
<polygon fill="white" stroke="none" points="397.25,-46.5 397.25,-146.5 662.75,-146.5 662.75,-46.5 397.25,-46.5"/>
<polygon fill="black" stroke="none" points="399.25,-122 399.25,-144.5 487.75,-144.5 487.75,-122 399.25,-122"/>
<text xml:space="preserve" text-anchor="start" x="402.25" y="-128.2" font-family="Courier New" font-size="14.00" fill="white">#2</text>
<polygon fill="black" stroke="none" points="489.75,-122 489.75,-144.5 660.75,-144.5 660.75,-122 489.75,-122"/>
<text xml:space="preserve" text-anchor="start" x="492.75" y="-128.2" font-family="Courier New" font-size="14.00" fill="white">think\model\Relation</text>
<text xml:space="preserve" text-anchor="start" x="402.25" y="-103.7" font-family="Courier New" font-size="14.00">&#39;*::query&#39;</text>
<text xml:space="preserve" text-anchor="start" x="492.75" y="-103.7" font-family="Courier New" font-size="14.00">#3</text>
<text xml:space="preserve" text-anchor="start" x="402.25" y="-79.2" font-family="Courier New" font-size="14.00">&#39;*::type&#39;</text>
<text xml:space="preserve" text-anchor="start" x="492.75" y="-79.2" font-family="Courier New" font-size="14.00">2</text>
<text xml:space="preserve" text-anchor="start" x="402.25" y="-54.7" font-family="Courier New" font-size="14.00">&#39;*::where&#39;</text>
<text xml:space="preserve" text-anchor="start" x="492.75" y="-54.7" font-family="Courier New" font-size="14.00">&#39;file_content&#39;</text>
</g>
<!-- object1&#45;&gt;object2 -->
<g id="edge1" class="edge">
<title>object1&#45;&gt;object2</title>
<path fill="none" stroke="black" d="M354.08,-96.5C361.9,-96.5 369.71,-96.5 377.46,-96.5"/>
<polygon fill="black" stroke="black" points="377.25,-100 387.25,-96.5 377.25,-93 377.25,-100"/>
</g>
<!-- object3 -->
<g id="node3" class="node">
<title>object3</title>
<path fill="white" stroke="black" d="M718.75,-31.25C718.75,-31.25 984.5,-31.25 984.5,-31.25 990.5,-31.25 996.5,-37.25 996.5,-43.25 996.5,-43.25 996.5,-149.75 996.5,-149.75 996.5,-155.75 990.5,-161.75 984.5,-161.75 984.5,-161.75 718.75,-161.75 718.75,-161.75 712.75,-161.75 706.75,-155.75 706.75,-149.75 706.75,-149.75 706.75,-43.25 706.75,-43.25 706.75,-37.25 712.75,-31.25 718.75,-31.25"/>
<polygon fill="white" stroke="none" points="714.75,-35.25 714.75,-157.75 988.5,-157.75 988.5,-35.25 714.75,-35.25"/>
<polygon fill="black" stroke="none" points="716.75,-133.25 716.75,-155.75 813.5,-155.75 813.5,-133.25 716.75,-133.25"/>
<text xml:space="preserve" text-anchor="start" x="719.75" y="-139.45" font-family="Courier New" font-size="14.00" fill="white">#3</text>
<polygon fill="black" stroke="none" points="815.5,-133.25 815.5,-155.75 986.5,-155.75 986.5,-133.25 815.5,-133.25"/>
<text xml:space="preserve" text-anchor="start" x="818.5" y="-139.45" font-family="Courier New" font-size="14.00" fill="white">think\console\Output</text>
<text xml:space="preserve" text-anchor="start" x="719.75" y="-114.95" font-family="Courier New" font-size="14.00">&#39;*::styles&#39;</text>
<polygon fill="white" stroke="none" points="818.5,-64.75 818.5,-128.25 983.5,-128.25 983.5,-64.75 818.5,-64.75"/>
<text xml:space="preserve" text-anchor="start" x="821.5" y="-111.95" font-family="Courier New" font-size="14.00">[</text>
<text xml:space="preserve" text-anchor="start" x="842.83" y="-91.45" font-family="Courier New" font-size="14.00">0 =&gt; </text>
<text xml:space="preserve" text-anchor="start" x="905.42" y="-91.45" font-family="Courier New" font-size="14.00">&#39;where&#39;</text>
<text xml:space="preserve" text-anchor="start" x="821.5" y="-70.95" font-family="Courier New" font-size="14.00">]</text>
<text xml:space="preserve" text-anchor="start" x="719.75" y="-43.45" font-family="Courier New" font-size="14.00">&#39;handle&#39;</text>
<text xml:space="preserve" text-anchor="start" x="818.5" y="-43.45" font-family="Courier New" font-size="14.00">#4</text>
</g>
<!-- object2&#45;&gt;object3 -->
<g id="edge2" class="edge">
<title>object2&#45;&gt;object3</title>
<path fill="none" stroke="black" d="M671.19,-96.5C679.12,-96.5 687.1,-96.5 695.08,-96.5"/>
<polygon fill="black" stroke="black" points="694.82,-100 704.82,-96.5 694.82,-93 694.82,-100"/>
</g>
<!-- object4 -->
<g id="node4" class="node">
<title>object4</title>
<path fill="white" stroke="black" d="M1044.5,-67C1044.5,-67 1392.75,-67 1392.75,-67 1398.75,-67 1404.75,-73 1404.75,-79 1404.75,-79 1404.75,-114 1404.75,-114 1404.75,-120 1398.75,-126 1392.75,-126 1392.75,-126 1044.5,-126 1044.5,-126 1038.5,-126 1032.5,-120 1032.5,-114 1032.5,-114 1032.5,-79 1032.5,-79 1032.5,-73 1038.5,-67 1044.5,-67"/>
<polygon fill="white" stroke="none" points="1040.5,-71 1040.5,-122 1396.75,-122 1396.75,-71 1040.5,-71"/>
<polygon fill="black" stroke="none" points="1042.5,-97.5 1042.5,-120 1147.5,-120 1147.5,-97.5 1042.5,-97.5"/>
<text xml:space="preserve" text-anchor="start" x="1045.5" y="-103.7" font-family="Courier New" font-size="14.00" fill="white">#4</text>
<polygon fill="black" stroke="none" points="1149.5,-97.5 1149.5,-120 1394.75,-120 1394.75,-97.5 1149.5,-97.5"/>
<text xml:space="preserve" text-anchor="start" x="1152.5" y="-103.7" font-family="Courier New" font-size="14.00" fill="white">think\session\driver\Memcache</text>
<text xml:space="preserve" text-anchor="start" x="1045.5" y="-79.2" font-family="Courier New" font-size="14.00">&#39;*::handler&#39;</text>
<text xml:space="preserve" text-anchor="start" x="1152.5" y="-79.2" font-family="Courier New" font-size="14.00">#5</text>
</g>
<!-- object3&#45;&gt;object4 -->
<g id="edge3" class="edge">
<title>object3&#45;&gt;object4</title>
<path fill="none" stroke="black" d="M996.88,-96.5C1004.74,-96.5 1012.69,-96.5 1020.68,-96.5"/>
<polygon fill="black" stroke="black" points="1020.49,-100 1030.49,-96.5 1020.49,-93 1020.49,-100"/>
</g>
<!-- object5 -->
<g id="node5" class="node">
<title>object5</title>
<path fill="white" stroke="black" d="M1452.75,-8.75C1452.75,-8.75 1792.75,-8.75 1792.75,-8.75 1798.75,-8.75 1804.75,-14.75 1804.75,-20.75 1804.75,-20.75 1804.75,-172.25 1804.75,-172.25 1804.75,-178.25 1798.75,-184.25 1792.75,-184.25 1792.75,-184.25 1452.75,-184.25 1452.75,-184.25 1446.75,-184.25 1440.75,-178.25 1440.75,-172.25 1440.75,-172.25 1440.75,-20.75 1440.75,-20.75 1440.75,-14.75 1446.75,-8.75 1452.75,-8.75"/>
<polygon fill="white" stroke="none" points="1448.75,-12.75 1448.75,-180.25 1796.75,-180.25 1796.75,-12.75 1448.75,-12.75"/>
<polygon fill="black" stroke="none" points="1450.75,-155.75 1450.75,-178.25 1555.75,-178.25 1555.75,-155.75 1450.75,-155.75"/>
<text xml:space="preserve" text-anchor="start" x="1453.75" y="-161.95" font-family="Courier New" font-size="14.00" fill="white">#5</text>
<polygon fill="black" stroke="none" points="1557.75,-155.75 1557.75,-178.25 1794.75,-178.25 1794.75,-155.75 1557.75,-155.75"/>
<text xml:space="preserve" text-anchor="start" x="1560.75" y="-161.95" font-family="Courier New" font-size="14.00" fill="white">think\cache\driver\Memcached</text>
<text xml:space="preserve" text-anchor="start" x="1453.75" y="-137.45" font-family="Courier New" font-size="14.00">&#39;*::tag&#39;</text>
<text xml:space="preserve" text-anchor="start" x="1560.75" y="-137.45" font-family="Courier New" font-size="14.00">true</text>
<text xml:space="preserve" text-anchor="start" x="1453.75" y="-112.95" font-family="Courier New" font-size="14.00">&#39;*::options&#39;</text>
<polygon fill="white" stroke="none" points="1560.75,-42.25 1560.75,-126.25 1791.75,-126.25 1791.75,-42.25 1560.75,-42.25"/>
<text xml:space="preserve" text-anchor="start" x="1563.75" y="-109.95" font-family="Courier New" font-size="14.00">[</text>
<text xml:space="preserve" text-anchor="start" x="1601.58" y="-89.45" font-family="Courier New" font-size="14.00">&#39;expire&#39; =&gt; </text>
<text xml:space="preserve" text-anchor="start" x="1738.42" y="-89.45" font-family="Courier New" font-size="14.00">0</text>
<text xml:space="preserve" text-anchor="start" x="1601.58" y="-68.95" font-family="Courier New" font-size="14.00">&#39;prefix&#39; =&gt; </text>
<text xml:space="preserve" text-anchor="start" x="1738.42" y="-68.95" font-family="Courier New" font-size="14.00">&#39;&#39;</text>
<text xml:space="preserve" text-anchor="start" x="1563.75" y="-48.45" font-family="Courier New" font-size="14.00">]</text>
<text xml:space="preserve" text-anchor="start" x="1453.75" y="-20.95" font-family="Courier New" font-size="14.00">&#39;*::handler&#39;</text>
<text xml:space="preserve" text-anchor="start" x="1560.75" y="-20.95" font-family="Courier New" font-size="14.00">#6</text>
</g>
<!-- object4&#45;&gt;object5 -->
<g id="edge4" class="edge">
<title>object4&#45;&gt;object5</title>
<path fill="none" stroke="black" d="M1405.09,-96.5C1413.07,-96.5 1421.08,-96.5 1429.08,-96.5"/>
<polygon fill="black" stroke="black" points="1428.85,-100 1438.85,-96.5 1428.85,-93 1428.85,-100"/>
</g>
<!-- object6 -->
<g id="node6" class="node">
<title>object6</title>
<path fill="white" stroke="black" d="M1852.75,-0.5C1852.75,-0.5 2305.75,-0.5 2305.75,-0.5 2311.75,-0.5 2317.75,-6.5 2317.75,-12.5 2317.75,-12.5 2317.75,-180.5 2317.75,-180.5 2317.75,-186.5 2311.75,-192.5 2305.75,-192.5 2305.75,-192.5 1852.75,-192.5 1852.75,-192.5 1846.75,-192.5 1840.75,-186.5 1840.75,-180.5 1840.75,-180.5 1840.75,-12.5 1840.75,-12.5 1840.75,-6.5 1846.75,-0.5 1852.75,-0.5"/>
<polygon fill="white" stroke="none" points="1848.75,-4.5 1848.75,-188.5 2309.75,-188.5 2309.75,-4.5 1848.75,-4.5"/>
<polygon fill="black" stroke="none" points="1850.75,-164 1850.75,-186.5 1955.75,-186.5 1955.75,-164 1850.75,-164"/>
<text xml:space="preserve" text-anchor="start" x="1853.75" y="-170.2" font-family="Courier New" font-size="14.00" fill="white">#6</text>
<polygon fill="black" stroke="none" points="1957.75,-164 1957.75,-186.5 2307.75,-186.5 2307.75,-164 1957.75,-164"/>
<text xml:space="preserve" text-anchor="start" x="2115" y="-170.2" font-family="Courier New" font-size="14.00" fill="white">think\cache\driver\File</text>
<text xml:space="preserve" text-anchor="start" x="1853.75" y="-145.7" font-family="Courier New" font-size="14.00">&#39;*::tag&#39;</text>
<text xml:space="preserve" text-anchor="start" x="1960.75" y="-145.7" font-family="Courier New" font-size="14.00">false</text>
<text xml:space="preserve" text-anchor="start" x="1853.75" y="-121.2" font-family="Courier New" font-size="14.00">&#39;*::options&#39;</text>
<polygon fill="white" stroke="none" points="1960.75,-9.5 1960.75,-134.5 2304.75,-134.5 2304.75,-9.5 1960.75,-9.5"/>
<text xml:space="preserve" text-anchor="start" x="1963.75" y="-118.2" font-family="Courier New" font-size="14.00">[</text>
<text xml:space="preserve" text-anchor="start" x="1967.75" y="-97.7" font-family="Courier New" font-size="14.00">&#39;cache_subdir&#39; =&gt; </text>
<text xml:space="preserve" text-anchor="start" x="2128.5" y="-97.7" font-family="Courier New" font-size="14.00">false</text>
<text xml:space="preserve" text-anchor="start" x="1967.75" y="-77.2" font-family="Courier New" font-size="14.00">&#39;prefix&#39; =&gt; </text>
<text xml:space="preserve" text-anchor="start" x="2128.5" y="-77.2" font-family="Courier New" font-size="14.00">&#39;&#39;</text>
<text xml:space="preserve" text-anchor="start" x="1967.75" y="-56.7" font-family="Courier New" font-size="14.00">&#39;data_compress&#39; =&gt; </text>
<text xml:space="preserve" text-anchor="start" x="2128.5" y="-56.7" font-family="Courier New" font-size="14.00">false</text>
<text xml:space="preserve" text-anchor="start" x="1967.75" y="-36.2" font-family="Courier New" font-size="14.00">&#39;path&#39; =&gt; </text>
<text xml:space="preserve" text-anchor="start" x="2128.5" y="-36.2" font-family="Courier New" font-size="14.00">&#39;file_path/file_name&#39;</text>
<text xml:space="preserve" text-anchor="start" x="1963.75" y="-15.7" font-family="Courier New" font-size="14.00">]</text>
</g>
<!-- object5&#45;&gt;object6 -->
<g id="edge5" class="edge">
<title>object5&#45;&gt;object6</title>
<path fill="none" stroke="black" d="M1805.01,-96.5C1812.92,-96.5 1820.9,-96.5 1828.92,-96.5"/>
<polygon fill="black" stroke="black" points="1828.76,-100 1838.76,-96.5 1828.76,-93 1828.76,-100"/>
</g>
</g>
</svg>
