<?xml version="1.0" encoding="UTF-8" standalone="no"?>
<!DOCTYPE svg PUBLIC "-//W3C//DTD SVG 1.1//EN"
 "http://www.w3.org/Graphics/SVG/1.1/DTD/svg11.dtd">
<!-- Generated by graphviz version 13.1.0 (20250701.0955)
 -->
<!-- Title: G Pages: 1 -->
<svg width="874pt" height="377pt"
 viewBox="0.00 0.00 874.00 377.00" xmlns="http://www.w3.org/2000/svg" xmlns:xlink="http://www.w3.org/1999/xlink">
<g id="graph0" class="graph" transform="scale(1 1) rotate(0) translate(4 372.5)">
<title>G</title>
<polygon fill="white" stroke="none" points="-4,4 -4,-372.5 870.25,-372.5 870.25,4 -4,4"/>
<!-- object1 -->
<g id="node1" class="node">
<title>object1</title>
<path fill="white" stroke="black" stroke-width="2" d="M12,-70C12,-70 352,-70 352,-70 358,-70 364,-76 364,-82 364,-82 364,-286.5 364,-286.5 364,-292.5 358,-298.5 352,-298.5 352,-298.5 12,-298.5 12,-298.5 6,-298.5 0,-292.5 0,-286.5 0,-286.5 0,-82 0,-82 0,-76 6,-70 12,-70"/>
<polygon fill="white" stroke="none" points="8,-74 8,-294.5 356,-294.5 356,-74 8,-74"/>
<polygon fill="black" stroke="none" points="10,-270 10,-292.5 205.75,-292.5 205.75,-270 10,-270"/>
<text xml:space="preserve" text-anchor="start" x="13" y="-276.2" font-family="Courier New" font-size="14.00" fill="white">#1</text>
<polygon fill="black" stroke="none" points="207.75,-270 207.75,-292.5 354,-292.5 354,-270 207.75,-270"/>
<text xml:space="preserve" text-anchor="start" x="210.75" y="-276.2" font-family="Courier New" font-size="14.00" fill="white">think\model\Pivot</text>
<text xml:space="preserve" text-anchor="start" x="13" y="-251.7" font-family="Courier New" font-size="14.00">&#39;think\Model::exists&#39;</text>
<text xml:space="preserve" text-anchor="start" x="210.75" y="-251.7" font-family="Courier New" font-size="14.00">true</text>
<text xml:space="preserve" text-anchor="start" x="13" y="-227.2" font-family="Courier New" font-size="14.00">&#39;think\Model::force&#39;</text>
<text xml:space="preserve" text-anchor="start" x="210.75" y="-227.2" font-family="Courier New" font-size="14.00">true</text>
<text xml:space="preserve" text-anchor="start" x="13" y="-202.7" font-family="Courier New" font-size="14.00">&#39;think\Model::lazySave&#39;</text>
<text xml:space="preserve" text-anchor="start" x="210.75" y="-202.7" font-family="Courier New" font-size="14.00">true</text>
<text xml:space="preserve" text-anchor="start" x="13" y="-178.2" font-family="Courier New" font-size="14.00">&#39;think\Model::data&#39;</text>
<polygon fill="white" stroke="none" points="210.75,-128 210.75,-191.5 351,-191.5 351,-128 210.75,-128"/>
<text xml:space="preserve" text-anchor="start" x="213.75" y="-175.2" font-family="Courier New" font-size="14.00">[</text>
<text xml:space="preserve" text-anchor="start" x="243.33" y="-154.7" font-family="Courier New" font-size="14.00">0 =&gt; </text>
<text xml:space="preserve" text-anchor="start" x="314.17" y="-154.7" font-family="Courier New" font-size="14.00">0</text>
<text xml:space="preserve" text-anchor="start" x="213.75" y="-134.2" font-family="Courier New" font-size="14.00">]</text>
<text xml:space="preserve" text-anchor="start" x="13" y="-106.7" font-family="Courier New" font-size="14.00">&#39;*::name&#39;</text>
<text xml:space="preserve" text-anchor="start" x="210.75" y="-106.7" font-family="Courier New" font-size="14.00">#2</text>
<text xml:space="preserve" text-anchor="start" x="13" y="-82.2" font-family="Courier New" font-size="14.00">&#39;*::withEvent&#39;</text>
<text xml:space="preserve" text-anchor="start" x="210.75" y="-82.2" font-family="Courier New" font-size="14.00">false</text>
</g>
<!-- object2 -->
<g id="node2" class="node">
<title>object2</title>
<path fill="white" stroke="black" d="M412,-0.5C412,-0.5 854.25,-0.5 854.25,-0.5 860.25,-0.5 866.25,-6.5 866.25,-12.5 866.25,-12.5 866.25,-356 866.25,-356 866.25,-362 860.25,-368 854.25,-368 854.25,-368 412,-368 412,-368 406,-368 400,-362 400,-356 400,-356 400,-12.5 400,-12.5 400,-6.5 406,-0.5 412,-0.5"/>
<polygon fill="white" stroke="none" points="408,-4.5 408,-364 858.25,-364 858.25,-4.5 408,-4.5"/>
<polygon fill="black" stroke="none" points="410,-339.5 410,-362 605.75,-362 605.75,-339.5 410,-339.5"/>
<text xml:space="preserve" text-anchor="start" x="413" y="-345.7" font-family="Courier New" font-size="14.00" fill="white">#2</text>
<polygon fill="black" stroke="none" points="607.75,-339.5 607.75,-362 856.25,-362 856.25,-339.5 607.75,-339.5"/>
<text xml:space="preserve" text-anchor="start" x="713" y="-345.7" font-family="Courier New" font-size="14.00" fill="white">think\model\Pivot</text>
<text xml:space="preserve" text-anchor="start" x="413" y="-321.2" font-family="Courier New" font-size="14.00">&#39;think\Model::data&#39;</text>
<polygon fill="white" stroke="none" points="610.75,-224 610.75,-334.5 853.25,-334.5 853.25,-224 610.75,-224"/>
<text xml:space="preserve" text-anchor="start" x="613.75" y="-318.2" font-family="Courier New" font-size="14.00">[</text>
<text xml:space="preserve" text-anchor="start" x="623.25" y="-297.7" font-family="Courier New" font-size="14.00">&#39;key&#39; =&gt; </text>
<polygon fill="white" stroke="none" points="707,-247.5 707,-311 850.25,-311 850.25,-247.5 707,-247.5"/>
<text xml:space="preserve" text-anchor="start" x="710" y="-294.7" font-family="Courier New" font-size="14.00">[</text>
<text xml:space="preserve" text-anchor="start" x="715.83" y="-274.2" font-family="Courier New" font-size="14.00">&#39;key&#39; =&gt; </text>
<text xml:space="preserve" text-anchor="start" x="795.92" y="-274.2" font-family="Courier New" font-size="14.00">&#39;calc&#39;</text>
<text xml:space="preserve" text-anchor="start" x="710" y="-253.7" font-family="Courier New" font-size="14.00">]</text>
<text xml:space="preserve" text-anchor="start" x="613.75" y="-230.2" font-family="Courier New" font-size="14.00">]</text>
<text xml:space="preserve" text-anchor="start" x="413" y="-202.7" font-family="Courier New" font-size="14.00">&#39;think\Model::withAttr&#39;</text>
<polygon fill="white" stroke="none" points="610.75,-105.5 610.75,-216 853.25,-216 853.25,-105.5 610.75,-105.5"/>
<text xml:space="preserve" text-anchor="start" x="613.75" y="-199.7" font-family="Courier New" font-size="14.00">[</text>
<text xml:space="preserve" text-anchor="start" x="617.75" y="-179.2" font-family="Courier New" font-size="14.00">&#39;key&#39; =&gt; </text>
<polygon fill="white" stroke="none" points="696,-129 696,-192.5 850.25,-192.5 850.25,-129 696,-129"/>
<text xml:space="preserve" text-anchor="start" x="699" y="-176.2" font-family="Courier New" font-size="14.00">[</text>
<text xml:space="preserve" text-anchor="start" x="703" y="-155.7" font-family="Courier New" font-size="14.00">&#39;key&#39; =&gt; </text>
<text xml:space="preserve" text-anchor="start" x="781.25" y="-155.7" font-family="Courier New" font-size="14.00">&#39;system&#39;</text>
<text xml:space="preserve" text-anchor="start" x="699" y="-135.2" font-family="Courier New" font-size="14.00">]</text>
<text xml:space="preserve" text-anchor="start" x="613.75" y="-111.7" font-family="Courier New" font-size="14.00">]</text>
<text xml:space="preserve" text-anchor="start" x="413" y="-84.2" font-family="Courier New" font-size="14.00">&#39;*::json&#39;</text>
<polygon fill="white" stroke="none" points="610.75,-34 610.75,-97.5 853.25,-97.5 853.25,-34 610.75,-34"/>
<text xml:space="preserve" text-anchor="start" x="613.75" y="-81.2" font-family="Courier New" font-size="14.00">[</text>
<text xml:space="preserve" text-anchor="start" x="666.42" y="-60.7" font-family="Courier New" font-size="14.00">0 =&gt; </text>
<text xml:space="preserve" text-anchor="start" x="760.33" y="-60.7" font-family="Courier New" font-size="14.00">&#39;key&#39;</text>
<text xml:space="preserve" text-anchor="start" x="613.75" y="-40.2" font-family="Courier New" font-size="14.00">]</text>
<text xml:space="preserve" text-anchor="start" x="413" y="-12.7" font-family="Courier New" font-size="14.00">&#39;*::jsonAssoc&#39;</text>
<text xml:space="preserve" text-anchor="start" x="610.75" y="-12.7" font-family="Courier New" font-size="14.00">true</text>
</g>
<!-- object1&#45;&gt;object2 -->
<g id="edge1" class="edge">
<title>object1&#45;&gt;object2</title>
<path fill="none" stroke="black" d="M364.71,-184.25C372.56,-184.25 380.49,-184.25 388.45,-184.25"/>
<polygon fill="black" stroke="black" points="388.21,-187.75 398.21,-184.25 388.21,-180.75 388.21,-187.75"/>
</g>
</g>
</svg>
