<?xml version="1.0" encoding="UTF-8" standalone="no"?>
<!DOCTYPE svg PUBLIC "-//W3C//DTD SVG 1.1//EN"
 "http://www.w3.org/Graphics/SVG/1.1/DTD/svg11.dtd">
<!-- Generated by graphviz version 13.1.0 (20250701.0955)
 -->
<!-- Title: G Pages: 1 -->
<svg width="753pt" height="187pt"
 viewBox="0.00 0.00 753.00 187.00" xmlns="http://www.w3.org/2000/svg" xmlns:xlink="http://www.w3.org/1999/xlink">
<g id="graph0" class="graph" transform="scale(1 1) rotate(0) translate(4 182.5)">
<title>G</title>
<polygon fill="white" stroke="none" points="-4,4 -4,-182.5 749,-182.5 749,4 -4,4"/>
<!-- object1 -->
<g id="node1" class="node">
<title>object1</title>
<path fill="white" stroke="black" stroke-width="2" d="M12,-36.25C12,-36.25 302.5,-36.25 302.5,-36.25 308.5,-36.25 314.5,-42.25 314.5,-48.25 314.5,-48.25 314.5,-130.25 314.5,-130.25 314.5,-136.25 308.5,-142.25 302.5,-142.25 302.5,-142.25 12,-142.25 12,-142.25 6,-142.25 0,-136.25 0,-130.25 0,-130.25 0,-48.25 0,-48.25 0,-42.25 6,-36.25 12,-36.25"/>
<polygon fill="white" stroke="none" points="8,-40.25 8,-138.25 306.5,-138.25 306.5,-40.25 8,-40.25"/>
<polygon fill="black" stroke="none" points="10,-113.75 10,-136.25 73.75,-136.25 73.75,-113.75 10,-113.75"/>
<text xml:space="preserve" text-anchor="start" x="13" y="-119.95" font-family="Courier New" font-size="14.00" fill="white">#1</text>
<polygon fill="black" stroke="none" points="75.75,-113.75 75.75,-136.25 304.5,-136.25 304.5,-113.75 75.75,-113.75"/>
<text xml:space="preserve" text-anchor="start" x="78.75" y="-119.95" font-family="Courier New" font-size="14.00" fill="white">think\process\pipes\Windows</text>
<text xml:space="preserve" text-anchor="start" x="13" y="-95.45" font-family="Courier New" font-size="14.00">&#39;files&#39;</text>
<polygon fill="white" stroke="none" points="78.75,-45.25 78.75,-108.75 301.5,-108.75 301.5,-45.25 78.75,-45.25"/>
<text xml:space="preserve" text-anchor="start" x="81.75" y="-92.45" font-family="Courier New" font-size="14.00">[</text>
<text xml:space="preserve" text-anchor="start" x="136.08" y="-71.95" font-family="Courier New" font-size="14.00">0 =&gt; </text>
<text xml:space="preserve" text-anchor="start" x="231.67" y="-71.95" font-family="Courier New" font-size="14.00">#2</text>
<text xml:space="preserve" text-anchor="start" x="81.75" y="-51.45" font-family="Courier New" font-size="14.00">]</text>
</g>
<!-- object2 -->
<g id="node2" class="node">
<title>object2</title>
<path fill="white" stroke="black" d="M362.5,-0.5C362.5,-0.5 733,-0.5 733,-0.5 739,-0.5 745,-6.5 745,-12.5 745,-12.5 745,-166 745,-166 745,-172 739,-178 733,-178 733,-178 362.5,-178 362.5,-178 356.5,-178 350.5,-172 350.5,-166 350.5,-166 350.5,-12.5 350.5,-12.5 350.5,-6.5 356.5,-0.5 362.5,-0.5"/>
<polygon fill="white" stroke="none" points="358.5,-4.5 358.5,-174 737,-174 737,-4.5 358.5,-4.5"/>
<polygon fill="black" stroke="none" points="360.5,-149.5 360.5,-172 556.25,-172 556.25,-149.5 360.5,-149.5"/>
<text xml:space="preserve" text-anchor="start" x="363.5" y="-155.7" font-family="Courier New" font-size="14.00" fill="white">#2</text>
<polygon fill="black" stroke="none" points="558.25,-149.5 558.25,-172 735,-172 735,-149.5 558.25,-149.5"/>
<text xml:space="preserve" text-anchor="start" x="591.75" y="-155.7" font-family="Courier New" font-size="14.00" fill="white">think\model\Pivot</text>
<text xml:space="preserve" text-anchor="start" x="363.5" y="-131.2" font-family="Courier New" font-size="14.00">&#39;think\Model::data&#39;</text>
<polygon fill="white" stroke="none" points="561.25,-81 561.25,-144.5 732,-144.5 732,-81 561.25,-81"/>
<text xml:space="preserve" text-anchor="start" x="564.25" y="-128.2" font-family="Courier New" font-size="14.00">[</text>
<text xml:space="preserve" text-anchor="start" x="579.25" y="-107.7" font-family="Courier New" font-size="14.00">&#39;smi1e&#39; =&gt; </text>
<text xml:space="preserve" text-anchor="start" x="685" y="-107.7" font-family="Courier New" font-size="14.00">&#39;id&#39;</text>
<text xml:space="preserve" text-anchor="start" x="564.25" y="-87.2" font-family="Courier New" font-size="14.00">]</text>
<text xml:space="preserve" text-anchor="start" x="363.5" y="-59.7" font-family="Courier New" font-size="14.00">&#39;think\Model::withAttr&#39;</text>
<polygon fill="white" stroke="none" points="561.25,-9.5 561.25,-73 732,-73 732,-9.5 561.25,-9.5"/>
<text xml:space="preserve" text-anchor="start" x="564.25" y="-56.7" font-family="Courier New" font-size="14.00">[</text>
<text xml:space="preserve" text-anchor="start" x="568.25" y="-36.2" font-family="Courier New" font-size="14.00">&#39;smi1e&#39; =&gt; </text>
<text xml:space="preserve" text-anchor="start" x="663" y="-36.2" font-family="Courier New" font-size="14.00">&#39;system&#39;</text>
<text xml:space="preserve" text-anchor="start" x="564.25" y="-15.7" font-family="Courier New" font-size="14.00">]</text>
</g>
<!-- object1&#45;&gt;object2 -->
<g id="edge1" class="edge">
<title>object1&#45;&gt;object2</title>
<path fill="none" stroke="black" d="M315.43,-89.25C323.13,-89.25 330.92,-89.25 338.74,-89.25"/>
<polygon fill="black" stroke="black" points="338.69,-92.75 348.69,-89.25 338.69,-85.75 338.69,-92.75"/>
</g>
</g>
</svg>
