<?xml version="1.0" encoding="UTF-8" standalone="no"?>
<!DOCTYPE svg PUBLIC "-//W3C//DTD SVG 1.1//EN"
 "http://www.w3.org/Graphics/SVG/1.1/DTD/svg11.dtd">
<!-- Generated by graphviz version 13.1.0 (20250701.0955)
 -->
<!-- Title: G Pages: 1 -->
<svg width="2433pt" height="259pt"
 viewBox="0.00 0.00 2433.00 259.00" xmlns="http://www.w3.org/2000/svg" xmlns:xlink="http://www.w3.org/1999/xlink">
<g id="graph0" class="graph" transform="scale(1 1) rotate(0) translate(4 254.75)">
<title>G</title>
<polygon fill="white" stroke="none" points="-4,4 -4,-254.75 2429,-254.75 2429,4 -4,4"/>
<!-- object1 -->
<g id="node1" class="node">
<title>object1</title>
<path fill="white" stroke="black" stroke-width="2" d="M12,-21.75C12,-21.75 341.25,-21.75 341.25,-21.75 347.25,-21.75 353.25,-27.75 353.25,-33.75 353.25,-33.75 353.25,-140.25 353.25,-140.25 353.25,-146.25 347.25,-152.25 341.25,-152.25 341.25,-152.25 12,-152.25 12,-152.25 6,-152.25 0,-146.25 0,-140.25 0,-140.25 0,-33.75 0,-33.75 0,-27.75 6,-21.75 12,-21.75"/>
<polygon fill="white" stroke="none" points="8,-25.75 8,-148.25 345.25,-148.25 345.25,-25.75 8,-25.75"/>
<polygon fill="black" stroke="none" points="10,-123.75 10,-146.25 181,-146.25 181,-123.75 10,-123.75"/>
<text xml:space="preserve" text-anchor="start" x="13" y="-129.95" font-family="Courier New" font-size="14.00" fill="white">#1</text>
<polygon fill="black" stroke="none" points="183,-123.75 183,-146.25 343.25,-146.25 343.25,-123.75 183,-123.75"/>
<text xml:space="preserve" text-anchor="start" x="233" y="-129.95" font-family="Courier New" font-size="14.00" fill="white">think\Process</text>
<text xml:space="preserve" text-anchor="start" x="13" y="-105.45" font-family="Courier New" font-size="14.00">&#39;processPipes&#39;</text>
<text xml:space="preserve" text-anchor="start" x="186" y="-105.45" font-family="Courier New" font-size="14.00">#2</text>
<text xml:space="preserve" text-anchor="start" x="13" y="-80.95" font-family="Courier New" font-size="14.00">&#39;processInformation&#39;</text>
<polygon fill="white" stroke="none" points="186,-30.75 186,-94.25 340.25,-94.25 340.25,-30.75 186,-30.75"/>
<text xml:space="preserve" text-anchor="start" x="189" y="-77.95" font-family="Courier New" font-size="14.00">[</text>
<text xml:space="preserve" text-anchor="start" x="193" y="-57.45" font-family="Courier New" font-size="14.00">&#39;running&#39; =&gt; </text>
<text xml:space="preserve" text-anchor="start" x="304.25" y="-57.45" font-family="Courier New" font-size="14.00">true</text>
<text xml:space="preserve" text-anchor="start" x="189" y="-36.95" font-family="Courier New" font-size="14.00">]</text>
</g>
<!-- object2 -->
<g id="node2" class="node">
<title>object2</title>
<path fill="white" stroke="black" d="M401.25,-8.5C401.25,-8.5 766,-8.5 766,-8.5 772,-8.5 778,-14.5 778,-20.5 778,-20.5 778,-153.5 778,-153.5 778,-159.5 772,-165.5 766,-165.5 766,-165.5 401.25,-165.5 401.25,-165.5 395.25,-165.5 389.25,-159.5 389.25,-153.5 389.25,-153.5 389.25,-20.5 389.25,-20.5 389.25,-14.5 395.25,-8.5 401.25,-8.5"/>
<polygon fill="white" stroke="none" points="397.25,-12.5 397.25,-161.5 770,-161.5 770,-12.5 397.25,-12.5"/>
<polygon fill="black" stroke="none" points="399.25,-137 399.25,-159.5 529,-159.5 529,-137 399.25,-137"/>
<text xml:space="preserve" text-anchor="start" x="402.25" y="-143.2" font-family="Courier New" font-size="14.00" fill="white">#2</text>
<polygon fill="black" stroke="none" points="531,-137 531,-159.5 768,-159.5 768,-137 531,-137"/>
<text xml:space="preserve" text-anchor="start" x="534" y="-143.2" font-family="Courier New" font-size="14.00" fill="white">think\model\relation\HasMany</text>
<text xml:space="preserve" text-anchor="start" x="402.25" y="-118.7" font-family="Courier New" font-size="14.00">&#39;*::query&#39;</text>
<text xml:space="preserve" text-anchor="start" x="534" y="-118.7" font-family="Courier New" font-size="14.00">#3</text>
<text xml:space="preserve" text-anchor="start" x="402.25" y="-94.2" font-family="Courier New" font-size="14.00">&#39;*::parent&#39;</text>
<text xml:space="preserve" text-anchor="start" x="534" y="-94.2" font-family="Courier New" font-size="14.00">#7</text>
<text xml:space="preserve" text-anchor="start" x="402.25" y="-69.7" font-family="Courier New" font-size="14.00">&#39;*::localKey&#39;</text>
<text xml:space="preserve" text-anchor="start" x="534" y="-69.7" font-family="Courier New" font-size="14.00">&#39;k&#39;</text>
<text xml:space="preserve" text-anchor="start" x="402.25" y="-45.2" font-family="Courier New" font-size="14.00">&#39;*::pivot&#39;</text>
<text xml:space="preserve" text-anchor="start" x="534" y="-45.2" font-family="Courier New" font-size="14.00">NULL</text>
<text xml:space="preserve" text-anchor="start" x="402.25" y="-20.7" font-family="Courier New" font-size="14.00">&#39;*::foreignKey&#39;</text>
<text xml:space="preserve" text-anchor="start" x="534" y="-20.7" font-family="Courier New" font-size="14.00">&#39;file_content&#39;</text>
</g>
<!-- object1&#45;&gt;object2 -->
<g id="edge1" class="edge">
<title>object1&#45;&gt;object2</title>
<path fill="none" stroke="black" d="M354.09,-87C361.82,-87 369.6,-87 377.4,-87"/>
<polygon fill="black" stroke="black" points="377.29,-90.5 387.29,-87 377.29,-83.5 377.29,-90.5"/>
</g>
<!-- object3 -->
<g id="node3" class="node">
<title>object3</title>
<path fill="white" stroke="black" d="M826,-78.75C826,-78.75 1091.75,-78.75 1091.75,-78.75 1097.75,-78.75 1103.75,-84.75 1103.75,-90.75 1103.75,-90.75 1103.75,-197.25 1103.75,-197.25 1103.75,-203.25 1097.75,-209.25 1091.75,-209.25 1091.75,-209.25 826,-209.25 826,-209.25 820,-209.25 814,-203.25 814,-197.25 814,-197.25 814,-90.75 814,-90.75 814,-84.75 820,-78.75 826,-78.75"/>
<polygon fill="white" stroke="none" points="822,-82.75 822,-205.25 1095.75,-205.25 1095.75,-82.75 822,-82.75"/>
<polygon fill="black" stroke="none" points="824,-180.75 824,-203.25 920.75,-203.25 920.75,-180.75 824,-180.75"/>
<text xml:space="preserve" text-anchor="start" x="827" y="-186.95" font-family="Courier New" font-size="14.00" fill="white">#3</text>
<polygon fill="black" stroke="none" points="922.75,-180.75 922.75,-203.25 1093.75,-203.25 1093.75,-180.75 922.75,-180.75"/>
<text xml:space="preserve" text-anchor="start" x="925.75" y="-186.95" font-family="Courier New" font-size="14.00" fill="white">think\console\Output</text>
<text xml:space="preserve" text-anchor="start" x="827" y="-162.45" font-family="Courier New" font-size="14.00">&#39;*::styles&#39;</text>
<polygon fill="white" stroke="none" points="925.75,-112.25 925.75,-175.75 1090.75,-175.75 1090.75,-112.25 925.75,-112.25"/>
<text xml:space="preserve" text-anchor="start" x="928.75" y="-159.45" font-family="Courier New" font-size="14.00">[</text>
<text xml:space="preserve" text-anchor="start" x="950.08" y="-138.95" font-family="Courier New" font-size="14.00">0 =&gt; </text>
<text xml:space="preserve" text-anchor="start" x="1012.67" y="-138.95" font-family="Courier New" font-size="14.00">&#39;where&#39;</text>
<text xml:space="preserve" text-anchor="start" x="928.75" y="-118.45" font-family="Courier New" font-size="14.00">]</text>
<text xml:space="preserve" text-anchor="start" x="827" y="-90.95" font-family="Courier New" font-size="14.00">&#39;handle&#39;</text>
<text xml:space="preserve" text-anchor="start" x="925.75" y="-90.95" font-family="Courier New" font-size="14.00">#4</text>
</g>
<!-- object2&#45;&gt;object3 -->
<g id="edge2" class="edge">
<title>object2&#45;&gt;object3</title>
<path fill="none" stroke="black" d="M778.36,-116.59C786.44,-117.82 794.51,-119.05 802.49,-120.27"/>
<polygon fill="black" stroke="black" points="801.82,-123.71 812.23,-121.76 802.87,-116.79 801.82,-123.71"/>
</g>
<!-- object7 -->
<g id="node7" class="node">
<title>object7</title>
<path fill="white" stroke="black" d="M908.5,-0.5C908.5,-0.5 1009.25,-0.5 1009.25,-0.5 1015.25,-0.5 1021.25,-6.5 1021.25,-12.5 1021.25,-12.5 1021.25,-47.5 1021.25,-47.5 1021.25,-53.5 1015.25,-59.5 1009.25,-59.5 1009.25,-59.5 908.5,-59.5 908.5,-59.5 902.5,-59.5 896.5,-53.5 896.5,-47.5 896.5,-47.5 896.5,-12.5 896.5,-12.5 896.5,-6.5 902.5,-0.5 908.5,-0.5"/>
<polygon fill="white" stroke="none" points="904.5,-4.5 904.5,-55.5 1013.25,-55.5 1013.25,-4.5 904.5,-4.5"/>
<polygon fill="black" stroke="none" points="906.5,-31 906.5,-53.5 937.25,-53.5 937.25,-31 906.5,-31"/>
<text xml:space="preserve" text-anchor="start" x="909.5" y="-37.2" font-family="Courier New" font-size="14.00" fill="white">#7</text>
<polygon fill="black" stroke="none" points="939.25,-31 939.25,-53.5 1011.25,-53.5 1011.25,-31 939.25,-31"/>
<text xml:space="preserve" text-anchor="start" x="942.25" y="-37.2" font-family="Courier New" font-size="14.00" fill="white">stdClass</text>
<text xml:space="preserve" text-anchor="start" x="909.5" y="-12.7" font-family="Courier New" font-size="14.00">&#39;k&#39;</text>
<text xml:space="preserve" text-anchor="start" x="942.25" y="-12.7" font-family="Courier New" font-size="14.00">0</text>
</g>
<!-- object2&#45;&gt;object7 -->
<g id="edge3" class="edge">
<title>object2&#45;&gt;object7</title>
<path fill="none" stroke="black" d="M778.36,-57.41C816.46,-51.6 854.16,-45.84 885.11,-41.11"/>
<polygon fill="black" stroke="black" points="885.34,-44.62 894.69,-39.65 884.28,-37.7 885.34,-44.62"/>
</g>
<!-- object4 -->
<g id="node4" class="node">
<title>object4</title>
<path fill="white" stroke="black" d="M1151.75,-114.5C1151.75,-114.5 1500,-114.5 1500,-114.5 1506,-114.5 1512,-120.5 1512,-126.5 1512,-126.5 1512,-161.5 1512,-161.5 1512,-167.5 1506,-173.5 1500,-173.5 1500,-173.5 1151.75,-173.5 1151.75,-173.5 1145.75,-173.5 1139.75,-167.5 1139.75,-161.5 1139.75,-161.5 1139.75,-126.5 1139.75,-126.5 1139.75,-120.5 1145.75,-114.5 1151.75,-114.5"/>
<polygon fill="white" stroke="none" points="1147.75,-118.5 1147.75,-169.5 1504,-169.5 1504,-118.5 1147.75,-118.5"/>
<polygon fill="black" stroke="none" points="1149.75,-145 1149.75,-167.5 1254.75,-167.5 1254.75,-145 1149.75,-145"/>
<text xml:space="preserve" text-anchor="start" x="1152.75" y="-151.2" font-family="Courier New" font-size="14.00" fill="white">#4</text>
<polygon fill="black" stroke="none" points="1256.75,-145 1256.75,-167.5 1502,-167.5 1502,-145 1256.75,-145"/>
<text xml:space="preserve" text-anchor="start" x="1259.75" y="-151.2" font-family="Courier New" font-size="14.00" fill="white">think\session\driver\Memcache</text>
<text xml:space="preserve" text-anchor="start" x="1152.75" y="-126.7" font-family="Courier New" font-size="14.00">&#39;*::handler&#39;</text>
<text xml:space="preserve" text-anchor="start" x="1259.75" y="-126.7" font-family="Courier New" font-size="14.00">#5</text>
</g>
<!-- object3&#45;&gt;object4 -->
<g id="edge4" class="edge">
<title>object3&#45;&gt;object4</title>
<path fill="none" stroke="black" d="M1104.13,-144C1111.99,-144 1119.94,-144 1127.93,-144"/>
<polygon fill="black" stroke="black" points="1127.74,-147.5 1137.74,-144 1127.74,-140.5 1127.74,-147.5"/>
</g>
<!-- object5 -->
<g id="node5" class="node">
<title>object5</title>
<path fill="white" stroke="black" d="M1560,-56.25C1560,-56.25 1900,-56.25 1900,-56.25 1906,-56.25 1912,-62.25 1912,-68.25 1912,-68.25 1912,-219.75 1912,-219.75 1912,-225.75 1906,-231.75 1900,-231.75 1900,-231.75 1560,-231.75 1560,-231.75 1554,-231.75 1548,-225.75 1548,-219.75 1548,-219.75 1548,-68.25 1548,-68.25 1548,-62.25 1554,-56.25 1560,-56.25"/>
<polygon fill="white" stroke="none" points="1556,-60.25 1556,-227.75 1904,-227.75 1904,-60.25 1556,-60.25"/>
<polygon fill="black" stroke="none" points="1558,-203.25 1558,-225.75 1663,-225.75 1663,-203.25 1558,-203.25"/>
<text xml:space="preserve" text-anchor="start" x="1561" y="-209.45" font-family="Courier New" font-size="14.00" fill="white">#5</text>
<polygon fill="black" stroke="none" points="1665,-203.25 1665,-225.75 1902,-225.75 1902,-203.25 1665,-203.25"/>
<text xml:space="preserve" text-anchor="start" x="1668" y="-209.45" font-family="Courier New" font-size="14.00" fill="white">think\cache\driver\Memcached</text>
<text xml:space="preserve" text-anchor="start" x="1561" y="-184.95" font-family="Courier New" font-size="14.00">&#39;*::tag&#39;</text>
<text xml:space="preserve" text-anchor="start" x="1668" y="-184.95" font-family="Courier New" font-size="14.00">true</text>
<text xml:space="preserve" text-anchor="start" x="1561" y="-160.45" font-family="Courier New" font-size="14.00">&#39;*::options&#39;</text>
<polygon fill="white" stroke="none" points="1668,-89.75 1668,-173.75 1899,-173.75 1899,-89.75 1668,-89.75"/>
<text xml:space="preserve" text-anchor="start" x="1671" y="-157.45" font-family="Courier New" font-size="14.00">[</text>
<text xml:space="preserve" text-anchor="start" x="1708.83" y="-136.95" font-family="Courier New" font-size="14.00">&#39;expire&#39; =&gt; </text>
<text xml:space="preserve" text-anchor="start" x="1845.67" y="-136.95" font-family="Courier New" font-size="14.00">0</text>
<text xml:space="preserve" text-anchor="start" x="1708.83" y="-116.45" font-family="Courier New" font-size="14.00">&#39;prefix&#39; =&gt; </text>
<text xml:space="preserve" text-anchor="start" x="1845.67" y="-116.45" font-family="Courier New" font-size="14.00">&#39;&#39;</text>
<text xml:space="preserve" text-anchor="start" x="1671" y="-95.95" font-family="Courier New" font-size="14.00">]</text>
<text xml:space="preserve" text-anchor="start" x="1561" y="-68.45" font-family="Courier New" font-size="14.00">&#39;*::handler&#39;</text>
<text xml:space="preserve" text-anchor="start" x="1668" y="-68.45" font-family="Courier New" font-size="14.00">#6</text>
</g>
<!-- object4&#45;&gt;object5 -->
<g id="edge5" class="edge">
<title>object4&#45;&gt;object5</title>
<path fill="none" stroke="black" d="M1512.34,-144C1520.32,-144 1528.33,-144 1536.33,-144"/>
<polygon fill="black" stroke="black" points="1536.1,-147.5 1546.1,-144 1536.1,-140.5 1536.1,-147.5"/>
</g>
<!-- object6 -->
<g id="node6" class="node">
<title>object6</title>
<path fill="white" stroke="black" d="M1960,-37.75C1960,-37.75 2413,-37.75 2413,-37.75 2419,-37.75 2425,-43.75 2425,-49.75 2425,-49.75 2425,-238.25 2425,-238.25 2425,-244.25 2419,-250.25 2413,-250.25 2413,-250.25 1960,-250.25 1960,-250.25 1954,-250.25 1948,-244.25 1948,-238.25 1948,-238.25 1948,-49.75 1948,-49.75 1948,-43.75 1954,-37.75 1960,-37.75"/>
<polygon fill="white" stroke="none" points="1956,-41.75 1956,-246.25 2417,-246.25 2417,-41.75 1956,-41.75"/>
<polygon fill="black" stroke="none" points="1958,-221.75 1958,-244.25 2063,-244.25 2063,-221.75 1958,-221.75"/>
<text xml:space="preserve" text-anchor="start" x="1961" y="-227.95" font-family="Courier New" font-size="14.00" fill="white">#6</text>
<polygon fill="black" stroke="none" points="2065,-221.75 2065,-244.25 2415,-244.25 2415,-221.75 2065,-221.75"/>
<text xml:space="preserve" text-anchor="start" x="2222.25" y="-227.95" font-family="Courier New" font-size="14.00" fill="white">think\cache\driver\File</text>
<text xml:space="preserve" text-anchor="start" x="1961" y="-203.45" font-family="Courier New" font-size="14.00">&#39;*::tag&#39;</text>
<text xml:space="preserve" text-anchor="start" x="2068" y="-203.45" font-family="Courier New" font-size="14.00">false</text>
<text xml:space="preserve" text-anchor="start" x="1961" y="-178.95" font-family="Courier New" font-size="14.00">&#39;*::options&#39;</text>
<polygon fill="white" stroke="none" points="2068,-46.75 2068,-192.25 2412,-192.25 2412,-46.75 2068,-46.75"/>
<text xml:space="preserve" text-anchor="start" x="2071" y="-175.95" font-family="Courier New" font-size="14.00">[</text>
<text xml:space="preserve" text-anchor="start" x="2075" y="-155.45" font-family="Courier New" font-size="14.00">&#39;expire&#39; =&gt; </text>
<text xml:space="preserve" text-anchor="start" x="2235.75" y="-155.45" font-family="Courier New" font-size="14.00">3600</text>
<text xml:space="preserve" text-anchor="start" x="2075" y="-134.95" font-family="Courier New" font-size="14.00">&#39;cache_subdir&#39; =&gt; </text>
<text xml:space="preserve" text-anchor="start" x="2235.75" y="-134.95" font-family="Courier New" font-size="14.00">false</text>
<text xml:space="preserve" text-anchor="start" x="2075" y="-114.45" font-family="Courier New" font-size="14.00">&#39;prefix&#39; =&gt; </text>
<text xml:space="preserve" text-anchor="start" x="2235.75" y="-114.45" font-family="Courier New" font-size="14.00">&#39;&#39;</text>
<text xml:space="preserve" text-anchor="start" x="2075" y="-93.95" font-family="Courier New" font-size="14.00">&#39;data_compress&#39; =&gt; </text>
<text xml:space="preserve" text-anchor="start" x="2235.75" y="-93.95" font-family="Courier New" font-size="14.00">false</text>
<text xml:space="preserve" text-anchor="start" x="2075" y="-73.45" font-family="Courier New" font-size="14.00">&#39;path&#39; =&gt; </text>
<text xml:space="preserve" text-anchor="start" x="2235.75" y="-73.45" font-family="Courier New" font-size="14.00">&#39;file_path/file_name&#39;</text>
<text xml:space="preserve" text-anchor="start" x="2071" y="-52.95" font-family="Courier New" font-size="14.00">]</text>
</g>
<!-- object5&#45;&gt;object6 -->
<g id="edge6" class="edge">
<title>object5&#45;&gt;object6</title>
<path fill="none" stroke="black" d="M1912.26,-144C1920.17,-144 1928.15,-144 1936.17,-144"/>
<polygon fill="black" stroke="black" points="1936.01,-147.5 1946.01,-144 1936.01,-140.5 1936.01,-147.5"/>
</g>
</g>
</svg>
