<?xml version="1.0" encoding="UTF-8" standalone="no"?>
<!DOCTYPE svg PUBLIC "-//W3C//DTD SVG 1.1//EN"
 "http://www.w3.org/Graphics/SVG/1.1/DTD/svg11.dtd">
<!-- Generated by graphviz version 13.1.0 (20250701.0955)
 -->
<!-- Title: G Pages: 1 -->
<svg width="1603pt" height="144pt"
 viewBox="0.00 0.00 1603.00 144.00" xmlns="http://www.w3.org/2000/svg" xmlns:xlink="http://www.w3.org/1999/xlink">
<g id="graph0" class="graph" transform="scale(1 1) rotate(0) translate(4 139.5)">
<title>G</title>
<polygon fill="white" stroke="none" points="-4,4 -4,-139.5 1598.5,-139.5 1598.5,4 -4,4"/>
<!-- object1 -->
<g id="node1" class="node">
<title>object1</title>
<path fill="white" stroke="black" stroke-width="2" d="M12,-0.5C12,-0.5 467.5,-0.5 467.5,-0.5 473.5,-0.5 479.5,-6.5 479.5,-12.5 479.5,-12.5 479.5,-123 479.5,-123 479.5,-129 473.5,-135 467.5,-135 467.5,-135 12,-135 12,-135 6,-135 0,-129 0,-123 0,-123 0,-12.5 0,-12.5 0,-6.5 6,-0.5 12,-0.5"/>
<polygon fill="white" stroke="none" points="8,-4.5 8,-131 471.5,-131 471.5,-4.5 8,-4.5"/>
<polygon fill="black" stroke="none" points="10,-106.5 10,-129 123.25,-129 123.25,-106.5 10,-106.5"/>
<text xml:space="preserve" text-anchor="start" x="13" y="-112.7" font-family="Courier New" font-size="14.00" fill="white">#1</text>
<polygon fill="black" stroke="none" points="125.25,-106.5 125.25,-129 469.5,-129 469.5,-106.5 125.25,-106.5"/>
<text xml:space="preserve" text-anchor="start" x="128.25" y="-112.7" font-family="Courier New" font-size="14.00" fill="white">League\Flysystem\Cached\Storage\Psr6Cache</text>
<text xml:space="preserve" text-anchor="start" x="13" y="-88.2" font-family="Courier New" font-size="14.00">&#39;pool&#39;</text>
<text xml:space="preserve" text-anchor="start" x="128.25" y="-88.2" font-family="Courier New" font-size="14.00">#2</text>
<text xml:space="preserve" text-anchor="start" x="13" y="-63.7" font-family="Courier New" font-size="14.00">&#39;*::autosave&#39;</text>
<text xml:space="preserve" text-anchor="start" x="128.25" y="-63.7" font-family="Courier New" font-size="14.00">false</text>
<text xml:space="preserve" text-anchor="start" x="13" y="-39.2" font-family="Courier New" font-size="14.00">&#39;*::key&#39;</text>
<polygon fill="white" stroke="none" points="128.25,-9.5 128.25,-52.5 466.5,-52.5 466.5,-9.5 128.25,-9.5"/>
<text xml:space="preserve" text-anchor="start" x="131.25" y="-36.2" font-family="Courier New" font-size="14.00">[</text>
<text xml:space="preserve" text-anchor="start" x="131.25" y="-15.7" font-family="Courier New" font-size="14.00">]</text>
</g>
<!-- object2 -->
<g id="node2" class="node">
<title>object2</title>
<path fill="white" stroke="black" d="M527.5,-26C527.5,-26 875.75,-26 875.75,-26 881.75,-26 887.75,-32 887.75,-38 887.75,-38 887.75,-97.5 887.75,-97.5 887.75,-103.5 881.75,-109.5 875.75,-109.5 875.75,-109.5 527.5,-109.5 527.5,-109.5 521.5,-109.5 515.5,-103.5 515.5,-97.5 515.5,-97.5 515.5,-38 515.5,-38 515.5,-32 521.5,-26 527.5,-26"/>
<polygon fill="white" stroke="none" points="523.5,-30 523.5,-105.5 879.75,-105.5 879.75,-30 523.5,-30"/>
<polygon fill="black" stroke="none" points="525.5,-81 525.5,-103.5 655.25,-103.5 655.25,-81 525.5,-81"/>
<text xml:space="preserve" text-anchor="start" x="528.5" y="-87.2" font-family="Courier New" font-size="14.00" fill="white">#2</text>
<polygon fill="black" stroke="none" points="657.25,-81 657.25,-103.5 877.75,-103.5 877.75,-81 657.25,-81"/>
<text xml:space="preserve" text-anchor="start" x="660.25" y="-87.2" font-family="Courier New" font-size="14.00" fill="white">League\Flysystem\Directory</text>
<text xml:space="preserve" text-anchor="start" x="528.5" y="-62.7" font-family="Courier New" font-size="14.00">&#39;*::filesystem&#39;</text>
<text xml:space="preserve" text-anchor="start" x="660.25" y="-62.7" font-family="Courier New" font-size="14.00">#3</text>
<text xml:space="preserve" text-anchor="start" x="528.5" y="-38.2" font-family="Courier New" font-size="14.00">&#39;*::path&#39;</text>
<text xml:space="preserve" text-anchor="start" x="660.25" y="-38.2" font-family="Courier New" font-size="14.00">&#39;key&#39;</text>
</g>
<!-- object1&#45;&gt;object2 -->
<g id="edge1" class="edge">
<title>object1&#45;&gt;object2</title>
<path fill="none" stroke="black" d="M480.45,-67.75C488.29,-67.75 496.11,-67.75 503.88,-67.75"/>
<polygon fill="black" stroke="black" points="503.71,-71.25 513.71,-67.75 503.71,-64.25 503.71,-71.25"/>
</g>
<!-- object3 -->
<g id="node3" class="node">
<title>object3</title>
<path fill="white" stroke="black" d="M935.75,-26C935.75,-26 1284,-26 1284,-26 1290,-26 1296,-32 1296,-38 1296,-38 1296,-97.5 1296,-97.5 1296,-103.5 1290,-109.5 1284,-109.5 1284,-109.5 935.75,-109.5 935.75,-109.5 929.75,-109.5 923.75,-103.5 923.75,-97.5 923.75,-97.5 923.75,-38 923.75,-38 923.75,-32 929.75,-26 935.75,-26"/>
<polygon fill="white" stroke="none" points="931.75,-30 931.75,-105.5 1288,-105.5 1288,-30 931.75,-30"/>
<polygon fill="black" stroke="none" points="933.75,-81 933.75,-103.5 1063.5,-103.5 1063.5,-81 933.75,-81"/>
<text xml:space="preserve" text-anchor="start" x="936.75" y="-87.2" font-family="Courier New" font-size="14.00" fill="white">#3</text>
<polygon fill="black" stroke="none" points="1065.5,-81 1065.5,-103.5 1286,-103.5 1286,-81 1065.5,-81"/>
<text xml:space="preserve" text-anchor="start" x="1068.5" y="-87.2" font-family="Courier New" font-size="14.00" fill="white">League\Flysystem\Directory</text>
<text xml:space="preserve" text-anchor="start" x="936.75" y="-62.7" font-family="Courier New" font-size="14.00">&#39;*::filesystem&#39;</text>
<text xml:space="preserve" text-anchor="start" x="1068.5" y="-62.7" font-family="Courier New" font-size="14.00">#4</text>
<text xml:space="preserve" text-anchor="start" x="936.75" y="-38.2" font-family="Courier New" font-size="14.00">&#39;*::path&#39;</text>
<text xml:space="preserve" text-anchor="start" x="1068.5" y="-38.2" font-family="Courier New" font-size="14.00">&#39;calc&#39;</text>
</g>
<!-- object2&#45;&gt;object3 -->
<g id="edge2" class="edge">
<title>object2&#45;&gt;object3</title>
<path fill="none" stroke="black" d="M888.21,-67.75C896.17,-67.75 904.17,-67.75 912.15,-67.75"/>
<polygon fill="black" stroke="black" points="911.91,-71.25 921.91,-67.75 911.91,-64.25 911.91,-71.25"/>
</g>
<!-- object4 -->
<g id="node4" class="node">
<title>object4</title>
<path fill="white" stroke="black" d="M1344,-14.75C1344,-14.75 1582.5,-14.75 1582.5,-14.75 1588.5,-14.75 1594.5,-20.75 1594.5,-26.75 1594.5,-26.75 1594.5,-108.75 1594.5,-108.75 1594.5,-114.75 1588.5,-120.75 1582.5,-120.75 1582.5,-120.75 1344,-120.75 1344,-120.75 1338,-120.75 1332,-114.75 1332,-108.75 1332,-108.75 1332,-26.75 1332,-26.75 1332,-20.75 1338,-14.75 1344,-14.75"/>
<polygon fill="white" stroke="none" points="1340,-18.75 1340,-116.75 1586.5,-116.75 1586.5,-18.75 1340,-18.75"/>
<polygon fill="black" stroke="none" points="1342,-92.25 1342,-114.75 1422.25,-114.75 1422.25,-92.25 1342,-92.25"/>
<text xml:space="preserve" text-anchor="start" x="1345" y="-98.45" font-family="Courier New" font-size="14.00" fill="white">#4</text>
<polygon fill="black" stroke="none" points="1424.25,-92.25 1424.25,-114.75 1584.5,-114.75 1584.5,-92.25 1424.25,-92.25"/>
<text xml:space="preserve" text-anchor="start" x="1466" y="-98.45" font-family="Courier New" font-size="14.00" fill="white">think\Validate</text>
<text xml:space="preserve" text-anchor="start" x="1345" y="-73.95" font-family="Courier New" font-size="14.00">&#39;*::type&#39;</text>
<polygon fill="white" stroke="none" points="1427.25,-23.75 1427.25,-87.25 1581.5,-87.25 1581.5,-23.75 1427.25,-23.75"/>
<text xml:space="preserve" text-anchor="start" x="1430.25" y="-70.95" font-family="Courier New" font-size="14.00">[</text>
<text xml:space="preserve" text-anchor="start" x="1434.25" y="-50.45" font-family="Courier New" font-size="14.00">&#39;key&#39; =&gt; </text>
<text xml:space="preserve" text-anchor="start" x="1512.5" y="-50.45" font-family="Courier New" font-size="14.00">&#39;system&#39;</text>
<text xml:space="preserve" text-anchor="start" x="1430.25" y="-29.95" font-family="Courier New" font-size="14.00">]</text>
</g>
<!-- object3&#45;&gt;object4 -->
<g id="edge3" class="edge">
<title>object3&#45;&gt;object4</title>
<path fill="none" stroke="black" d="M1296.34,-67.75C1304.32,-67.75 1312.27,-67.75 1320.13,-67.75"/>
<polygon fill="black" stroke="black" points="1320.06,-71.25 1330.06,-67.75 1320.06,-64.25 1320.06,-71.25"/>
</g>
</g>
</svg>
