<?xml version="1.0" encoding="UTF-8" standalone="no"?>
<!DOCTYPE svg PUBLIC "-//W3C//DTD SVG 1.1//EN"
 "http://www.w3.org/Graphics/SVG/1.1/DTD/svg11.dtd">
<!-- Generated by graphviz version 13.1.0 (20250701.0955)
 -->
<!-- Title: G Pages: 1 -->
<svg width="2287pt" height="326pt"
 viewBox="0.00 0.00 2287.00 326.00" xmlns="http://www.w3.org/2000/svg" xmlns:xlink="http://www.w3.org/1999/xlink">
<g id="graph0" class="graph" transform="scale(1 1) rotate(0) translate(4 322)">
<title>G</title>
<polygon fill="white" stroke="none" points="-4,4 -4,-322 2283,-322 2283,4 -4,4"/>
<!-- object1 -->
<g id="node1" class="node">
<title>object1</title>
<path fill="white" stroke="black" stroke-width="2" d="M12,-106C12,-106 302.5,-106 302.5,-106 308.5,-106 314.5,-112 314.5,-118 314.5,-118 314.5,-200 314.5,-200 314.5,-206 308.5,-212 302.5,-212 302.5,-212 12,-212 12,-212 6,-212 0,-206 0,-200 0,-200 0,-118 0,-118 0,-112 6,-106 12,-106"/>
<polygon fill="white" stroke="none" points="8,-110 8,-208 306.5,-208 306.5,-110 8,-110"/>
<polygon fill="black" stroke="none" points="10,-183.5 10,-206 73.75,-206 73.75,-183.5 10,-183.5"/>
<text xml:space="preserve" text-anchor="start" x="13" y="-189.7" font-family="Courier New" font-size="14.00" fill="white">#1</text>
<polygon fill="black" stroke="none" points="75.75,-183.5 75.75,-206 304.5,-206 304.5,-183.5 75.75,-183.5"/>
<text xml:space="preserve" text-anchor="start" x="78.75" y="-189.7" font-family="Courier New" font-size="14.00" fill="white">think\process\pipes\Windows</text>
<text xml:space="preserve" text-anchor="start" x="13" y="-165.2" font-family="Courier New" font-size="14.00">&#39;files&#39;</text>
<polygon fill="white" stroke="none" points="78.75,-115 78.75,-178.5 301.5,-178.5 301.5,-115 78.75,-115"/>
<text xml:space="preserve" text-anchor="start" x="81.75" y="-162.2" font-family="Courier New" font-size="14.00">[</text>
<text xml:space="preserve" text-anchor="start" x="136.08" y="-141.7" font-family="Courier New" font-size="14.00">0 =&gt; </text>
<text xml:space="preserve" text-anchor="start" x="231.67" y="-141.7" font-family="Courier New" font-size="14.00">#2</text>
<text xml:space="preserve" text-anchor="start" x="81.75" y="-121.2" font-family="Courier New" font-size="14.00">]</text>
</g>
<!-- object2 -->
<g id="node2" class="node">
<title>object2</title>
<path fill="white" stroke="black" d="M362.5,-81.5C362.5,-81.5 603.5,-81.5 603.5,-81.5 609.5,-81.5 615.5,-87.5 615.5,-93.5 615.5,-93.5 615.5,-224.5 615.5,-224.5 615.5,-230.5 609.5,-236.5 603.5,-236.5 603.5,-236.5 362.5,-236.5 362.5,-236.5 356.5,-236.5 350.5,-230.5 350.5,-224.5 350.5,-224.5 350.5,-93.5 350.5,-93.5 350.5,-87.5 356.5,-81.5 362.5,-81.5"/>
<polygon fill="white" stroke="none" points="358.5,-85.5 358.5,-232.5 607.5,-232.5 607.5,-85.5 358.5,-85.5"/>
<polygon fill="black" stroke="none" points="360.5,-208 360.5,-230.5 457.25,-230.5 457.25,-208 360.5,-208"/>
<text xml:space="preserve" text-anchor="start" x="363.5" y="-214.2" font-family="Courier New" font-size="14.00" fill="white">#2</text>
<polygon fill="black" stroke="none" points="459.25,-208 459.25,-230.5 605.5,-230.5 605.5,-208 459.25,-208"/>
<text xml:space="preserve" text-anchor="start" x="462.25" y="-214.2" font-family="Courier New" font-size="14.00" fill="white">think\model\Pivot</text>
<text xml:space="preserve" text-anchor="start" x="363.5" y="-189.7" font-family="Courier New" font-size="14.00">&#39;*::append&#39;</text>
<polygon fill="white" stroke="none" points="462.25,-139.5 462.25,-203 602.5,-203 602.5,-139.5 462.25,-139.5"/>
<text xml:space="preserve" text-anchor="start" x="465.25" y="-186.7" font-family="Courier New" font-size="14.00">[</text>
<text xml:space="preserve" text-anchor="start" x="470.08" y="-166.2" font-family="Courier New" font-size="14.00">0 =&gt; </text>
<text xml:space="preserve" text-anchor="start" x="516.17" y="-166.2" font-family="Courier New" font-size="14.00">&#39;getError&#39;</text>
<text xml:space="preserve" text-anchor="start" x="465.25" y="-145.7" font-family="Courier New" font-size="14.00">]</text>
<text xml:space="preserve" text-anchor="start" x="363.5" y="-118.2" font-family="Courier New" font-size="14.00">&#39;*::error&#39;</text>
<text xml:space="preserve" text-anchor="start" x="462.25" y="-118.2" font-family="Courier New" font-size="14.00">#3</text>
<text xml:space="preserve" text-anchor="start" x="363.5" y="-93.7" font-family="Courier New" font-size="14.00">&#39;*::parent&#39;</text>
<text xml:space="preserve" text-anchor="start" x="462.25" y="-93.7" font-family="Courier New" font-size="14.00">#6</text>
</g>
<!-- object1&#45;&gt;object2 -->
<g id="edge1" class="edge">
<title>object1&#45;&gt;object2</title>
<path fill="none" stroke="black" d="M315.38,-159C323.18,-159 330.98,-159 338.74,-159"/>
<polygon fill="black" stroke="black" points="338.53,-162.5 348.53,-159 338.53,-155.5 338.53,-162.5"/>
</g>
<!-- object3 -->
<g id="node3" class="node">
<title>object3</title>
<path fill="white" stroke="black" d="M663.5,-162.5C663.5,-162.5 1036.5,-162.5 1036.5,-162.5 1042.5,-162.5 1048.5,-168.5 1048.5,-174.5 1048.5,-174.5 1048.5,-305.5 1048.5,-305.5 1048.5,-311.5 1042.5,-317.5 1036.5,-317.5 1036.5,-317.5 663.5,-317.5 663.5,-317.5 657.5,-317.5 651.5,-311.5 651.5,-305.5 651.5,-305.5 651.5,-174.5 651.5,-174.5 651.5,-168.5 657.5,-162.5 663.5,-162.5"/>
<polygon fill="white" stroke="none" points="659.5,-166.5 659.5,-313.5 1040.5,-313.5 1040.5,-166.5 659.5,-166.5"/>
<polygon fill="black" stroke="none" points="661.5,-289 661.5,-311.5 807.75,-311.5 807.75,-289 661.5,-289"/>
<text xml:space="preserve" text-anchor="start" x="664.5" y="-295.2" font-family="Courier New" font-size="14.00" fill="white">#3</text>
<polygon fill="black" stroke="none" points="809.75,-289 809.75,-311.5 1038.5,-311.5 1038.5,-289 809.75,-289"/>
<text xml:space="preserve" text-anchor="start" x="812.75" y="-295.2" font-family="Courier New" font-size="14.00" fill="white">think\model\relation\HasOne</text>
<text xml:space="preserve" text-anchor="start" x="664.5" y="-270.7" font-family="Courier New" font-size="14.00">&#39;*::selfRelation&#39;</text>
<text xml:space="preserve" text-anchor="start" x="812.75" y="-270.7" font-family="Courier New" font-size="14.00">false</text>
<text xml:space="preserve" text-anchor="start" x="664.5" y="-246.2" font-family="Courier New" font-size="14.00">&#39;*::query&#39;</text>
<text xml:space="preserve" text-anchor="start" x="812.75" y="-246.2" font-family="Courier New" font-size="14.00">#4</text>
<text xml:space="preserve" text-anchor="start" x="664.5" y="-221.7" font-family="Courier New" font-size="14.00">&#39;*::bindAttr&#39;</text>
<polygon fill="white" stroke="none" points="812.75,-171.5 812.75,-235 1035.5,-235 1035.5,-171.5 812.75,-171.5"/>
<text xml:space="preserve" text-anchor="start" x="815.75" y="-218.7" font-family="Courier New" font-size="14.00">[</text>
<text xml:space="preserve" text-anchor="start" x="864.58" y="-198.2" font-family="Courier New" font-size="14.00">0 =&gt; </text>
<text xml:space="preserve" text-anchor="start" x="954.67" y="-198.2" font-family="Courier New" font-size="14.00">&#39;no&#39;</text>
<text xml:space="preserve" text-anchor="start" x="815.75" y="-177.7" font-family="Courier New" font-size="14.00">]</text>
</g>
<!-- object2&#45;&gt;object3 -->
<g id="edge2" class="edge">
<title>object2&#45;&gt;object3</title>
<path fill="none" stroke="black" d="M615.77,-188.24C623.71,-190 631.78,-191.79 639.92,-193.6"/>
<polygon fill="black" stroke="black" points="639.06,-197 649.58,-195.75 640.58,-190.16 639.06,-197"/>
</g>
<!-- object6 -->
<g id="node6" class="node">
<title>object6</title>
<path fill="white" stroke="black" d="M717.12,-12.75C717.12,-12.75 982.88,-12.75 982.88,-12.75 988.88,-12.75 994.88,-18.75 994.88,-24.75 994.88,-24.75 994.88,-131.25 994.88,-131.25 994.88,-137.25 988.88,-143.25 982.88,-143.25 982.88,-143.25 717.12,-143.25 717.12,-143.25 711.12,-143.25 705.12,-137.25 705.12,-131.25 705.12,-131.25 705.12,-24.75 705.12,-24.75 705.12,-18.75 711.12,-12.75 717.12,-12.75"/>
<polygon fill="white" stroke="none" points="713.12,-16.75 713.12,-139.25 986.88,-139.25 986.88,-16.75 713.12,-16.75"/>
<polygon fill="black" stroke="none" points="715.12,-114.75 715.12,-137.25 811.88,-137.25 811.88,-114.75 715.12,-114.75"/>
<text xml:space="preserve" text-anchor="start" x="718.12" y="-120.95" font-family="Courier New" font-size="14.00" fill="white">#6</text>
<polygon fill="black" stroke="none" points="813.88,-114.75 813.88,-137.25 984.88,-137.25 984.88,-114.75 813.88,-114.75"/>
<text xml:space="preserve" text-anchor="start" x="816.88" y="-120.95" font-family="Courier New" font-size="14.00" fill="white">think\console\Output</text>
<text xml:space="preserve" text-anchor="start" x="718.12" y="-96.45" font-family="Courier New" font-size="14.00">&#39;handle&#39;</text>
<text xml:space="preserve" text-anchor="start" x="816.88" y="-96.45" font-family="Courier New" font-size="14.00">#7</text>
<text xml:space="preserve" text-anchor="start" x="718.12" y="-71.95" font-family="Courier New" font-size="14.00">&#39;*::styles&#39;</text>
<polygon fill="white" stroke="none" points="816.88,-21.75 816.88,-85.25 981.88,-85.25 981.88,-21.75 816.88,-21.75"/>
<text xml:space="preserve" text-anchor="start" x="819.88" y="-68.95" font-family="Courier New" font-size="14.00">[</text>
<text xml:space="preserve" text-anchor="start" x="835.71" y="-48.45" font-family="Courier New" font-size="14.00">0 =&gt; </text>
<text xml:space="preserve" text-anchor="start" x="892.79" y="-48.45" font-family="Courier New" font-size="14.00">&#39;getAttr&#39;</text>
<text xml:space="preserve" text-anchor="start" x="819.88" y="-27.95" font-family="Courier New" font-size="14.00">]</text>
</g>
<!-- object2&#45;&gt;object6 -->
<g id="edge3" class="edge">
<title>object2&#45;&gt;object6</title>
<path fill="none" stroke="black" d="M615.77,-129.76C641.06,-124.15 667.75,-118.22 693.69,-112.47"/>
<polygon fill="black" stroke="black" points="694.28,-115.92 703.28,-110.34 692.76,-109.09 694.28,-115.92"/>
</g>
<!-- object4 -->
<g id="node4" class="node">
<title>object4</title>
<path fill="white" stroke="black" d="M1170.75,-210.5C1170.75,-210.5 1378.75,-210.5 1378.75,-210.5 1384.75,-210.5 1390.75,-216.5 1390.75,-222.5 1390.75,-222.5 1390.75,-257.5 1390.75,-257.5 1390.75,-263.5 1384.75,-269.5 1378.75,-269.5 1378.75,-269.5 1170.75,-269.5 1170.75,-269.5 1164.75,-269.5 1158.75,-263.5 1158.75,-257.5 1158.75,-257.5 1158.75,-222.5 1158.75,-222.5 1158.75,-216.5 1164.75,-210.5 1170.75,-210.5"/>
<polygon fill="white" stroke="none" points="1166.75,-214.5 1166.75,-265.5 1382.75,-265.5 1382.75,-214.5 1166.75,-214.5"/>
<polygon fill="black" stroke="none" points="1168.75,-241 1168.75,-263.5 1257.25,-263.5 1257.25,-241 1168.75,-241"/>
<text xml:space="preserve" text-anchor="start" x="1171.75" y="-247.2" font-family="Courier New" font-size="14.00" fill="white">#4</text>
<polygon fill="black" stroke="none" points="1259.25,-241 1259.25,-263.5 1380.75,-263.5 1380.75,-241 1259.25,-241"/>
<text xml:space="preserve" text-anchor="start" x="1262.25" y="-247.2" font-family="Courier New" font-size="14.00" fill="white">think\db\Query</text>
<text xml:space="preserve" text-anchor="start" x="1171.75" y="-222.7" font-family="Courier New" font-size="14.00">&#39;*::model&#39;</text>
<text xml:space="preserve" text-anchor="start" x="1262.25" y="-222.7" font-family="Courier New" font-size="14.00">#5</text>
</g>
<!-- object3&#45;&gt;object4 -->
<g id="edge4" class="edge">
<title>object3&#45;&gt;object4</title>
<path fill="none" stroke="black" d="M1048.76,-240C1082.25,-240 1116.2,-240 1147.23,-240"/>
<polygon fill="black" stroke="black" points="1147.01,-243.5 1157.01,-240 1147.01,-236.5 1147.01,-243.5"/>
</g>
<!-- object5 -->
<g id="node5" class="node">
<title>object5</title>
<path fill="white" stroke="black" d="M1583.12,-222C1583.12,-222 1774.62,-222 1774.62,-222 1780.62,-222 1786.62,-228 1786.62,-234 1786.62,-234 1786.62,-246 1786.62,-246 1786.62,-252 1780.62,-258 1774.62,-258 1774.62,-258 1583.12,-258 1583.12,-258 1577.12,-258 1571.12,-252 1571.12,-246 1571.12,-246 1571.12,-234 1571.12,-234 1571.12,-228 1577.12,-222 1583.12,-222"/>
<polygon fill="white" stroke="none" points="1579.12,-227 1579.12,-253.5 1778.62,-253.5 1778.62,-227 1579.12,-227"/>
<polygon fill="black" stroke="none" points="1581.12,-229 1581.12,-251.5 1603.62,-251.5 1603.62,-229 1581.12,-229"/>
<text xml:space="preserve" text-anchor="start" x="1584.12" y="-235.2" font-family="Courier New" font-size="14.00" fill="white">#5</text>
<polygon fill="black" stroke="none" points="1605.62,-229 1605.62,-251.5 1776.62,-251.5 1776.62,-229 1605.62,-229"/>
<text xml:space="preserve" text-anchor="start" x="1608.62" y="-235.2" font-family="Courier New" font-size="14.00" fill="white">think\console\Output</text>
</g>
<!-- object4&#45;&gt;object5 -->
<g id="edge5" class="edge">
<title>object4&#45;&gt;object5</title>
<path fill="none" stroke="black" d="M1390.98,-240C1443.85,-240 1506.47,-240 1559.69,-240"/>
<polygon fill="black" stroke="black" points="1559.38,-243.5 1569.38,-240 1559.38,-236.5 1559.38,-243.5"/>
</g>
<!-- object7 -->
<g id="node7" class="node">
<title>object7</title>
<path fill="white" stroke="black" d="M1096.5,-2.5C1096.5,-2.5 1453,-2.5 1453,-2.5 1459,-2.5 1465,-8.5 1465,-14.5 1465,-14.5 1465,-141.5 1465,-141.5 1465,-147.5 1459,-153.5 1453,-153.5 1453,-153.5 1096.5,-153.5 1096.5,-153.5 1090.5,-153.5 1084.5,-147.5 1084.5,-141.5 1084.5,-141.5 1084.5,-14.5 1084.5,-14.5 1084.5,-8.5 1090.5,-2.5 1096.5,-2.5"/>
<polygon fill="white" stroke="none" points="1092.5,-6.5 1092.5,-149.5 1457,-149.5 1457,-6.5 1092.5,-6.5"/>
<polygon fill="black" stroke="none" points="1094.5,-125 1094.5,-147.5 1199.5,-147.5 1199.5,-125 1094.5,-125"/>
<text xml:space="preserve" text-anchor="start" x="1097.5" y="-131.2" font-family="Courier New" font-size="14.00" fill="white">#7</text>
<polygon fill="black" stroke="none" points="1201.5,-125 1201.5,-147.5 1455,-147.5 1455,-125 1201.5,-125"/>
<text xml:space="preserve" text-anchor="start" x="1204.5" y="-131.2" font-family="Courier New" font-size="14.00" fill="white">think\session\driver\Memcached</text>
<text xml:space="preserve" text-anchor="start" x="1097.5" y="-106.7" font-family="Courier New" font-size="14.00">&#39;*::handler&#39;</text>
<text xml:space="preserve" text-anchor="start" x="1204.5" y="-106.7" font-family="Courier New" font-size="14.00">#8</text>
<text xml:space="preserve" text-anchor="start" x="1097.5" y="-82.2" font-family="Courier New" font-size="14.00">&#39;*::config&#39;</text>
<polygon fill="white" stroke="none" points="1204.5,-11.5 1204.5,-95.5 1452,-95.5 1452,-11.5 1204.5,-11.5"/>
<text xml:space="preserve" text-anchor="start" x="1207.5" y="-79.2" font-family="Courier New" font-size="14.00">[</text>
<text xml:space="preserve" text-anchor="start" x="1217.83" y="-58.7" font-family="Courier New" font-size="14.00">&#39;expire&#39; =&gt; </text>
<text xml:space="preserve" text-anchor="start" x="1376.67" y="-58.7" font-family="Courier New" font-size="14.00">3600</text>
<text xml:space="preserve" text-anchor="start" x="1217.83" y="-38.2" font-family="Courier New" font-size="14.00">&#39;session_name&#39; =&gt; </text>
<text xml:space="preserve" text-anchor="start" x="1376.67" y="-38.2" font-family="Courier New" font-size="14.00">&#39;HEXENS&#39;</text>
<text xml:space="preserve" text-anchor="start" x="1207.5" y="-17.7" font-family="Courier New" font-size="14.00">]</text>
</g>
<!-- object6&#45;&gt;object7 -->
<g id="edge6" class="edge">
<title>object6&#45;&gt;object7</title>
<path fill="none" stroke="black" d="M995.3,-78C1020.31,-78 1046.72,-78 1072.92,-78"/>
<polygon fill="black" stroke="black" points="1072.61,-81.5 1082.61,-78 1072.61,-74.5 1072.61,-81.5"/>
</g>
<!-- object8 -->
<g id="node8" class="node">
<title>object8</title>
<path fill="white" stroke="black" d="M1513,-0.5C1513,-0.5 1844.75,-0.5 1844.75,-0.5 1850.75,-0.5 1856.75,-6.5 1856.75,-12.5 1856.75,-12.5 1856.75,-143.5 1856.75,-143.5 1856.75,-149.5 1850.75,-155.5 1844.75,-155.5 1844.75,-155.5 1513,-155.5 1513,-155.5 1507,-155.5 1501,-149.5 1501,-143.5 1501,-143.5 1501,-12.5 1501,-12.5 1501,-6.5 1507,-0.5 1513,-0.5"/>
<polygon fill="white" stroke="none" points="1509,-4.5 1509,-151.5 1848.75,-151.5 1848.75,-4.5 1509,-4.5"/>
<polygon fill="black" stroke="none" points="1511,-127 1511,-149.5 1616,-149.5 1616,-127 1511,-127"/>
<text xml:space="preserve" text-anchor="start" x="1514" y="-133.2" font-family="Courier New" font-size="14.00" fill="white">#8</text>
<polygon fill="black" stroke="none" points="1618,-127 1618,-149.5 1846.75,-149.5 1846.75,-127 1618,-127"/>
<text xml:space="preserve" text-anchor="start" x="1621" y="-133.2" font-family="Courier New" font-size="14.00" fill="white">think\cache\driver\Memcache</text>
<text xml:space="preserve" text-anchor="start" x="1514" y="-108.7" font-family="Courier New" font-size="14.00">&#39;*::options&#39;</text>
<polygon fill="white" stroke="none" points="1621,-58.5 1621,-122 1843.75,-122 1843.75,-58.5 1621,-58.5"/>
<text xml:space="preserve" text-anchor="start" x="1624" y="-105.7" font-family="Courier New" font-size="14.00">[</text>
<text xml:space="preserve" text-anchor="start" x="1659.08" y="-85.2" font-family="Courier New" font-size="14.00">&#39;prefix&#39; =&gt; </text>
<text xml:space="preserve" text-anchor="start" x="1793.17" y="-85.2" font-family="Courier New" font-size="14.00">&#39;&#39;</text>
<text xml:space="preserve" text-anchor="start" x="1624" y="-64.7" font-family="Courier New" font-size="14.00">]</text>
<text xml:space="preserve" text-anchor="start" x="1514" y="-37.2" font-family="Courier New" font-size="14.00">&#39;*::handler&#39;</text>
<text xml:space="preserve" text-anchor="start" x="1621" y="-37.2" font-family="Courier New" font-size="14.00">#9</text>
<text xml:space="preserve" text-anchor="start" x="1514" y="-12.7" font-family="Courier New" font-size="14.00">&#39;*::tag&#39;</text>
<text xml:space="preserve" text-anchor="start" x="1621" y="-12.7" font-family="Courier New" font-size="14.00">true</text>
</g>
<!-- object7&#45;&gt;object8 -->
<g id="edge7" class="edge">
<title>object7&#45;&gt;object8</title>
<path fill="none" stroke="black" d="M1465.33,-78C1473.36,-78 1481.4,-78 1489.42,-78"/>
<polygon fill="black" stroke="black" points="1489.23,-81.5 1499.23,-78 1489.23,-74.5 1489.23,-81.5"/>
</g>
<!-- object9 -->
<g id="node9" class="node">
<title>object9</title>
<path fill="white" stroke="black" d="M1904.75,-12.75C1904.75,-12.75 2267,-12.75 2267,-12.75 2273,-12.75 2279,-18.75 2279,-24.75 2279,-24.75 2279,-131.25 2279,-131.25 2279,-137.25 2273,-143.25 2267,-143.25 2267,-143.25 1904.75,-143.25 1904.75,-143.25 1898.75,-143.25 1892.75,-137.25 1892.75,-131.25 1892.75,-131.25 1892.75,-24.75 1892.75,-24.75 1892.75,-18.75 1898.75,-12.75 1904.75,-12.75"/>
<polygon fill="white" stroke="none" points="1900.75,-16.75 1900.75,-139.25 2271,-139.25 2271,-16.75 1900.75,-16.75"/>
<polygon fill="black" stroke="none" points="1902.75,-114.75 1902.75,-137.25 1999.5,-137.25 1999.5,-114.75 1902.75,-114.75"/>
<text xml:space="preserve" text-anchor="start" x="1905.75" y="-120.95" font-family="Courier New" font-size="14.00" fill="white">#9</text>
<polygon fill="black" stroke="none" points="2001.5,-114.75 2001.5,-137.25 2269,-137.25 2269,-114.75 2001.5,-114.75"/>
<text xml:space="preserve" text-anchor="start" x="2158.75" y="-120.95" font-family="Courier New" font-size="14.00" fill="white">think\Request</text>
<text xml:space="preserve" text-anchor="start" x="1905.75" y="-96.45" font-family="Courier New" font-size="14.00">&#39;*::get&#39;</text>
<polygon fill="white" stroke="none" points="2004.5,-46.25 2004.5,-109.75 2266,-109.75 2266,-46.25 2004.5,-46.25"/>
<text xml:space="preserve" text-anchor="start" x="2007.5" y="-93.45" font-family="Courier New" font-size="14.00">[</text>
<text xml:space="preserve" text-anchor="start" x="2011.5" y="-72.95" font-family="Courier New" font-size="14.00">&#39;HEXENS&lt;getAttr&gt;no&lt;&#39; =&gt; </text>
<text xml:space="preserve" text-anchor="start" x="2213.5" y="-72.95" font-family="Courier New" font-size="14.00">&#39;calc&#39;</text>
<text xml:space="preserve" text-anchor="start" x="2007.5" y="-52.45" font-family="Courier New" font-size="14.00">]</text>
<text xml:space="preserve" text-anchor="start" x="1905.75" y="-24.95" font-family="Courier New" font-size="14.00">&#39;*::filter&#39;</text>
<text xml:space="preserve" text-anchor="start" x="2004.5" y="-24.95" font-family="Courier New" font-size="14.00">&#39;system&#39;</text>
</g>
<!-- object8&#45;&gt;object9 -->
<g id="edge8" class="edge">
<title>object8&#45;&gt;object9</title>
<path fill="none" stroke="black" d="M1857.22,-78C1865.17,-78 1873.17,-78 1881.18,-78"/>
<polygon fill="black" stroke="black" points="1880.98,-81.5 1890.98,-78 1880.98,-74.5 1880.98,-81.5"/>
</g>
</g>
</svg>
